<svg xmlns="http://www.w3.org/2000/svg" class="logo-kooples" viewBox="0 0 288.6 41"><style>.a{fill:#FFF;}</style><pattern x="76.6" y="90.6" width="69" height="69" patternUnits="userSpaceOnUse" viewBox="2.1 -70.9 69 69"><polygon points="71.1 -1.9 2.1 -1.9 2.1 -70.9 71.1 -70.9" fill="none"/><polygon points="71.1 -1.9 2.1 -1.9 2.1 -70.9 71.1 -70.9" fill="#F8C05A"/><path d="M61.8-71.7c0 0.1 0 0.1 0 0.2-0.1 0.1-0.1 0.1-0.2 0.1-0.1 0.1-0.1 0.3-0.1 0.4-0.2 0.1 0 0.2 0 0.3 0 0 0 0.1 0 0.2 0 0.1 0 0.3 0.1 0.4 0.1 0.2 0.3 0.4 0.4 0.5 0.2 0.1 0.4 0.6 0.6 0.6 0.2 0 0.4-0.1 0.5-0.1 0.2 0 0.4 0 0.6-0.1 0.2-0.1 0.1-0.3 0.3-0.5 0.1-0.1 0.3 0 0.4-0.1 0.2-0.1 0.3-0.3 0.4-0.5 0-0.1 0-0.1 0-0.2 0-0.1 0.1-0.2 0.1-0.3 0-0.1-0.1-0.1-0.1-0.2 0-0.1 0-0.2 0-0.3 0-0.2 0-0.4-0.1-0.5-0.4-0.7-1.2-0.9-2-0.8-0.2 0-0.3 0.1-0.4 0.2-0.2 0.1-0.1 0.2-0.3 0.2-0.1 0-0.2 0.1-0.2 0.2C61.8-71.7 61.8-71.7 61.8-71.7 61.8-71.6 61.8-71.6 61.8-71.7M54.1-71.7c0 0.1 0 0.1 0 0.2-0.1 0.1-0.1 0.1-0.2 0.1-0.1 0.1-0.1 0.3-0.1 0.4-0.2 0.1 0 0.2 0 0.3 0 0 0 0.1 0 0.2 0 0.1 0 0.3 0.1 0.4 0.1 0.2 0.3 0.4 0.4 0.5 0.2 0.1 0.4 0.6 0.6 0.6 0.2 0 0.4-0.1 0.5-0.1 0.2 0 0.4 0 0.6-0.1 0.2-0.1 0.1-0.3 0.3-0.5 0.1-0.1 0.3 0 0.4-0.1 0.2-0.1 0.3-0.3 0.4-0.5 0-0.1 0-0.1 0-0.2 0-0.1 0.1-0.2 0.1-0.3 0-0.1-0.1-0.1-0.1-0.2 0-0.1 0-0.2 0-0.3 0-0.2 0-0.4-0.1-0.5-0.4-0.7-1.2-0.9-2-0.8-0.2 0-0.3 0.1-0.4 0.2-0.2 0.1-0.1 0.2-0.3 0.2-0.1 0-0.2 0.1-0.2 0.2C54.1-71.7 54.1-71.7 54.1-71.7 54.1-71.6 54.1-71.6 54.1-71.7M46.4-71.7c0 0.1 0 0.1 0 0.2-0.1 0.1-0.1 0.1-0.2 0.1-0.1 0.1-0.1 0.3-0.1 0.4-0.2 0.1 0 0.2 0 0.3 0 0 0 0.1 0 0.2 0 0.1 0 0.3 0.1 0.4 0.1 0.2 0.3 0.4 0.4 0.5 0.2 0.1 0.4 0.6 0.6 0.6 0.2 0 0.4-0.1 0.5-0.1 0.2 0 0.4 0 0.6-0.1 0.2-0.1 0.1-0.3 0.3-0.5 0.1-0.1 0.3 0 0.4-0.1 0.2-0.1 0.3-0.3 0.4-0.5 0-0.1 0-0.1 0-0.2 0-0.1 0.1-0.2 0.1-0.3 0-0.1-0.1-0.1-0.1-0.2 0-0.1 0-0.2 0-0.3 0-0.2 0-0.4-0.1-0.5-0.4-0.7-1.2-0.9-2-0.8-0.2 0-0.3 0.1-0.4 0.2-0.2 0.1-0.1 0.2-0.3 0.2-0.1 0-0.2 0.1-0.2 0.2C46.4-71.7 46.4-71.7 46.4-71.7 46.4-71.6 46.4-71.6 46.4-71.7M38.8-71.7c0 0.1 0 0.1 0 0.2-0.1 0.1-0.1 0.1-0.2 0.1-0.1 0.1-0.1 0.3-0.1 0.4-0.2 0.1 0 0.2 0 0.3 0 0 0 0.1 0 0.2 0 0.1 0 0.3 0.1 0.4 0.1 0.2 0.3 0.4 0.4 0.5 0.2 0.1 0.4 0.6 0.6 0.6 0.2 0 0.4-0.1 0.5-0.1 0.2 0 0.4 0 0.6-0.1 0.2-0.1 0.1-0.3 0.3-0.5 0.1-0.1 0.3 0 0.4-0.1 0.2-0.1 0.3-0.3 0.4-0.5 0-0.1 0-0.1 0-0.2 0-0.1 0.1-0.2 0.1-0.3 0-0.1-0.1-0.1-0.1-0.2 0-0.1 0-0.2 0-0.3 0-0.2 0-0.4-0.1-0.5-0.4-0.7-1.2-0.9-2-0.8-0.2 0-0.3 0.1-0.4 0.2-0.2 0.1-0.1 0.2-0.3 0.2-0.1 0-0.2 0.1-0.2 0.2C38.8-71.7 38.8-71.7 38.8-71.7 38.8-71.6 38.8-71.6 38.8-71.7M31.1-71.7c0 0.1 0 0.1 0 0.2-0.1 0.1-0.1 0.1-0.2 0.1-0.1 0.1-0.1 0.3-0.1 0.4-0.2 0.1 0 0.2 0 0.3 0 0 0 0.1 0 0.2 0 0.1 0 0.3 0.1 0.4 0.1 0.2 0.3 0.4 0.4 0.5 0.2 0.1 0.4 0.6 0.6 0.6 0.2 0 0.4-0.1 0.5-0.1 0.2 0 0.4 0 0.6-0.1 0.2-0.1 0.1-0.3 0.3-0.5 0.1-0.1 0.3 0 0.4-0.1 0.2-0.1 0.3-0.3 0.4-0.5 0-0.1 0-0.1 0-0.2 0-0.1 0.1-0.2 0.1-0.3 0-0.1-0.1-0.1-0.1-0.2 0-0.1 0-0.2 0-0.3 0-0.2 0-0.4-0.1-0.5-0.4-0.7-1.2-0.9-2-0.8-0.2 0-0.3 0.1-0.4 0.2-0.2 0.1-0.1 0.2-0.3 0.2-0.1 0-0.2 0.1-0.2 0.2C31.1-71.7 31.1-71.7 31.1-71.7 31.1-71.6 31.1-71.6 31.1-71.7M23.4-71.7c0 0.1 0 0.1 0 0.2-0.1 0.1-0.1 0.1-0.2 0.1-0.1 0.1-0.1 0.3-0.1 0.4-0.2 0.1 0 0.2 0 0.3 0 0 0 0.1 0 0.2 0 0.1 0 0.3 0.1 0.4 0.1 0.2 0.3 0.4 0.4 0.5 0.2 0.1 0.4 0.6 0.6 0.6 0.2 0 0.4-0.1 0.5-0.1 0.2 0 0.4 0 0.6-0.1 0.2-0.1 0.1-0.3 0.3-0.5 0.1-0.1 0.3 0 0.4-0.1 0.2-0.1 0.3-0.3 0.4-0.5 0-0.1 0-0.1 0-0.2 0-0.1 0.1-0.2 0.1-0.3 0-0.1-0.1-0.1-0.1-0.2 0-0.1 0-0.2 0-0.3 0-0.2 0-0.4-0.1-0.5-0.4-0.7-1.2-0.9-2-0.8-0.2 0-0.3 0.1-0.4 0.2-0.2 0.1-0.1 0.2-0.3 0.2-0.1 0-0.2 0.1-0.2 0.2C23.4-71.7 23.4-71.7 23.4-71.7 23.4-71.6 23.4-71.6 23.4-71.7M15.8-71.7c0 0.1 0 0.1 0 0.2-0.1 0.1-0.1 0.1-0.2 0.1-0.1 0.1-0.1 0.3-0.1 0.4-0.2 0.1 0 0.2 0 0.3 0 0 0 0.1 0 0.2 0 0.1 0 0.3 0.1 0.4 0.1 0.2 0.3 0.4 0.4 0.5 0.2 0.1 0.4 0.6 0.6 0.6 0.2 0 0.4-0.1 0.5-0.1 0.2 0 0.4 0 0.6-0.1 0.2-0.1 0.1-0.3 0.3-0.5 0.1-0.1 0.3 0 0.4-0.1 0.2-0.1 0.3-0.3 0.4-0.5 0-0.1 0-0.1 0-0.2 0-0.1 0.1-0.2 0.1-0.3 0-0.1-0.1-0.1-0.1-0.2 0-0.1 0-0.2 0-0.3 0-0.2 0-0.4-0.1-0.5-0.4-0.7-1.2-0.9-2-0.8-0.2 0-0.3 0.1-0.4 0.2-0.2 0.1-0.1 0.2-0.3 0.2-0.1 0-0.2 0.1-0.2 0.2C15.8-71.7 15.8-71.7 15.8-71.7 15.8-71.6 15.8-71.6 15.8-71.7M8.1-71.7c0 0.1 0 0.1 0 0.2C8-71.4 8-71.4 7.9-71.3c-0.1 0.1-0.1 0.3-0.1 0.4-0.2 0.1 0 0.2 0 0.3 0 0 0 0.1 0 0.2 0 0.1 0 0.3 0.1 0.4 0.1 0.2 0.3 0.4 0.4 0.5 0.2 0.1 0.4 0.6 0.6 0.6 0.2 0 0.4-0.1 0.5-0.1 0.2 0 0.4 0 0.6-0.1 0.2-0.1 0.1-0.3 0.3-0.5 0.1-0.1 0.3 0 0.4-0.1 0.2-0.1 0.3-0.3 0.4-0.5 0-0.1 0-0.1 0-0.2 0-0.1 0.1-0.2 0.1-0.3 0-0.1-0.1-0.1-0.1-0.2 0-0.1 0-0.2 0-0.3 0-0.2 0-0.4-0.1-0.5-0.4-0.7-1.2-0.9-2-0.8-0.2 0-0.3 0.1-0.4 0.2-0.2 0.1-0.1 0.2-0.3 0.2-0.1 0-0.2 0.1-0.2 0.2C8.1-71.7 8.1-71.7 8.1-71.7 8.1-71.6 8.1-71.6 8.1-71.7M0.4-71.7c0 0.1 0 0.1 0 0.2-0.1 0.1-0.1 0.1-0.2 0.1-0.1 0.1-0.1 0.3-0.1 0.4-0.2 0.1 0 0.2 0 0.3 0 0 0 0.1 0 0.2 0 0.1 0 0.3 0.1 0.4 0.1 0.2 0.3 0.4 0.4 0.5C0.8-69.4 1-69 1.2-68.9c0.2 0 0.4-0.1 0.5-0.1 0.2 0 0.4 0 0.6-0.1 0.2-0.1 0.1-0.3 0.3-0.5 0.1-0.1 0.3 0 0.4-0.1 0.2-0.1 0.3-0.3 0.4-0.5 0-0.1 0-0.1 0-0.2 0-0.1 0.1-0.2 0.1-0.3 0-0.1-0.1-0.1-0.1-0.2 0-0.1 0-0.2 0-0.3 0-0.2 0-0.4-0.1-0.5-0.4-0.7-1.2-0.9-2-0.8-0.2 0-0.3 0.1-0.4 0.2-0.2 0.1-0.1 0.2-0.3 0.2-0.1 0-0.2 0.1-0.2 0.2C0.4-71.7 0.4-71.7 0.4-71.7 0.4-71.6 0.4-71.6 0.4-71.7" class="a"/><path d="M69.4-71.7c0 0.1 0 0.1 0 0.2-0.1 0.1-0.1 0.1-0.2 0.1-0.1 0.1-0.1 0.3-0.1 0.4-0.2 0.1 0 0.2 0 0.3 0 0 0 0.1 0 0.2 0 0.1 0 0.3 0.1 0.4 0.1 0.2 0.3 0.4 0.4 0.5 0.2 0.1 0.4 0.6 0.6 0.6 0.2 0 0.4-0.1 0.5-0.1 0.2 0 0.4 0 0.6-0.1 0.2-0.1 0.1-0.3 0.3-0.5 0.1-0.1 0.3 0 0.4-0.1 0.2-0.1 0.3-0.3 0.4-0.5 0-0.1 0-0.1 0-0.2 0-0.1 0.1-0.2 0.1-0.3 0-0.1-0.1-0.1-0.1-0.2 0-0.1 0-0.2 0-0.3 0-0.2 0-0.4-0.1-0.5-0.4-0.7-1.2-0.9-2-0.8-0.2 0-0.3 0.1-0.4 0.2-0.2 0.1-0.1 0.2-0.3 0.2-0.1 0-0.2 0.1-0.2 0.2C69.4-71.7 69.4-71.7 69.4-71.7 69.4-71.6 69.4-71.6 69.4-71.7" class="a"/><path d="M0.5-71.7c0 0.1 0 0.1 0 0.2-0.1 0.1-0.1 0.1-0.2 0.1-0.1 0.1-0.1 0.3-0.1 0.4-0.2 0.1 0 0.2 0 0.3 0 0 0 0.1 0 0.2 0 0.1 0 0.3 0.1 0.4 0.1 0.2 0.3 0.4 0.4 0.5C0.9-69.4 1-69 1.3-68.9c0.2 0 0.4-0.1 0.5-0.1 0.2 0 0.4 0 0.6-0.1 0.2-0.1 0.1-0.3 0.3-0.5 0.1-0.1 0.3 0 0.4-0.1 0.2-0.1 0.3-0.3 0.4-0.5 0-0.1 0-0.1 0-0.2 0-0.1 0.1-0.2 0.1-0.3 0-0.1-0.1-0.1-0.1-0.2 0-0.1 0-0.2 0-0.3 0-0.2 0-0.4-0.1-0.5-0.4-0.7-1.2-0.9-2-0.8-0.2 0-0.3 0.1-0.4 0.2-0.2 0.1-0.1 0.2-0.3 0.2-0.1 0-0.2 0.1-0.2 0.2C0.5-71.7 0.5-71.7 0.5-71.7 0.5-71.6 0.5-71.6 0.5-71.7" class="a"/><path d="M69.4-64c0 0.1 0 0.1 0 0.2-0.1 0.1-0.1 0.1-0.2 0.1-0.1 0.1-0.1 0.3-0.1 0.4-0.2 0.1 0 0.2 0 0.3 0 0 0 0.1 0 0.2 0 0.1 0 0.3 0.1 0.4 0.1 0.2 0.3 0.4 0.4 0.5 0.2 0.1 0.4 0.6 0.6 0.6 0.2 0 0.4-0.1 0.5-0.1 0.2 0 0.4 0 0.6-0.1 0.2-0.1 0.1-0.3 0.3-0.5 0.1-0.1 0.3 0 0.4-0.1 0.2-0.1 0.3-0.3 0.4-0.5 0-0.1 0-0.1 0-0.2 0-0.1 0.1-0.2 0.1-0.3 0-0.1-0.1-0.1-0.1-0.2 0-0.1 0-0.2 0-0.3 0-0.2 0-0.4-0.1-0.5-0.4-0.7-1.2-0.9-2-0.8-0.2 0-0.3 0.1-0.4 0.2-0.2 0.1-0.1 0.2-0.3 0.2-0.1 0-0.2 0.1-0.2 0.2C69.4-64 69.4-64.1 69.4-64 69.4-64 69.4-64 69.4-64M61.8-64c0 0.1 0 0.1 0 0.2-0.1 0.1-0.1 0.1-0.2 0.1-0.1 0.1-0.1 0.3-0.1 0.4-0.2 0.1 0 0.2 0 0.3 0 0 0 0.1 0 0.2 0 0.1 0 0.3 0.1 0.4 0.1 0.2 0.3 0.4 0.4 0.5 0.2 0.1 0.4 0.6 0.6 0.6 0.2 0 0.4-0.1 0.5-0.1 0.2 0 0.4 0 0.6-0.1 0.2-0.1 0.1-0.3 0.3-0.5 0.1-0.1 0.3 0 0.4-0.1 0.2-0.1 0.3-0.3 0.4-0.5 0-0.1 0-0.1 0-0.2 0-0.1 0.1-0.2 0.1-0.3 0-0.1-0.1-0.1-0.1-0.2 0-0.1 0-0.2 0-0.3 0-0.2 0-0.4-0.1-0.5-0.4-0.7-1.2-0.9-2-0.8-0.2 0-0.3 0.1-0.4 0.2-0.2 0.1-0.1 0.2-0.3 0.2-0.1 0-0.2 0.1-0.2 0.2C61.8-64 61.8-64.1 61.8-64 61.8-64 61.8-64 61.8-64M54.1-64c0 0.1 0 0.1 0 0.2-0.1 0.1-0.1 0.1-0.2 0.1-0.1 0.1-0.1 0.3-0.1 0.4-0.2 0.1 0 0.2 0 0.3 0 0 0 0.1 0 0.2 0 0.1 0 0.3 0.1 0.4 0.1 0.2 0.3 0.4 0.4 0.5 0.2 0.1 0.4 0.6 0.6 0.6 0.2 0 0.4-0.1 0.5-0.1 0.2 0 0.4 0 0.6-0.1 0.2-0.1 0.1-0.3 0.3-0.5 0.1-0.1 0.3 0 0.4-0.1 0.2-0.1 0.3-0.3 0.4-0.5 0-0.1 0-0.1 0-0.2 0-0.1 0.1-0.2 0.1-0.3 0-0.1-0.1-0.1-0.1-0.2 0-0.1 0-0.2 0-0.3 0-0.2 0-0.4-0.1-0.5-0.4-0.7-1.2-0.9-2-0.8-0.2 0-0.3 0.1-0.4 0.2-0.2 0.1-0.1 0.2-0.3 0.2-0.1 0-0.2 0.1-0.2 0.2C54.1-64 54.1-64.1 54.1-64 54.1-64 54.1-64 54.1-64M46.5-64c0 0.1 0 0.1 0 0.2-0.1 0.1-0.1 0.1-0.2 0.1-0.1 0.1-0.1 0.3-0.1 0.4-0.2 0.1 0 0.2 0 0.3 0 0 0 0.1 0 0.2 0 0.1 0 0.3 0.1 0.4 0.1 0.2 0.3 0.4 0.4 0.5 0.2 0.1 0.4 0.6 0.6 0.6 0.2 0 0.4-0.1 0.5-0.1 0.2 0 0.4 0 0.6-0.1 0.2-0.1 0.1-0.3 0.3-0.5 0.1-0.1 0.3 0 0.4-0.1 0.2-0.1 0.3-0.3 0.4-0.5 0-0.1 0-0.1 0-0.2 0-0.1 0.1-0.2 0.1-0.3 0-0.1-0.1-0.1-0.1-0.2 0-0.1 0-0.2 0-0.3 0-0.2 0-0.4-0.1-0.5-0.4-0.7-1.2-0.9-2-0.8-0.2 0-0.3 0.1-0.4 0.2-0.2 0.1-0.1 0.2-0.3 0.2-0.1 0-0.2 0.1-0.2 0.2C46.5-64 46.5-64.1 46.5-64 46.5-64 46.5-64 46.5-64M38.8-64c0 0.1 0 0.1 0 0.2-0.1 0.1-0.1 0.1-0.2 0.1-0.1 0.1-0.1 0.3-0.1 0.4-0.2 0.1 0 0.2 0 0.3 0 0 0 0.1 0 0.2 0 0.1 0 0.3 0.1 0.4 0.1 0.2 0.3 0.4 0.4 0.5 0.2 0.1 0.4 0.6 0.6 0.6 0.2 0 0.4-0.1 0.5-0.1 0.2 0 0.4 0 0.6-0.1 0.2-0.1 0.1-0.3 0.3-0.5 0.1-0.1 0.3 0 0.4-0.1 0.2-0.1 0.3-0.3 0.4-0.5 0-0.1 0-0.1 0-0.2 0-0.1 0.1-0.2 0.1-0.3 0-0.1-0.1-0.1-0.1-0.2 0-0.1 0-0.2 0-0.3 0-0.2 0-0.4-0.1-0.5-0.4-0.7-1.2-0.9-2-0.8-0.2 0-0.3 0.1-0.4 0.2-0.2 0.1-0.1 0.2-0.3 0.2-0.1 0-0.2 0.1-0.2 0.2C38.8-64 38.8-64.1 38.8-64 38.8-64 38.8-64 38.8-64M31.1-64c0 0.1 0 0.1 0 0.2-0.1 0.1-0.1 0.1-0.2 0.1-0.1 0.1-0.1 0.3-0.1 0.4-0.2 0.1 0 0.2 0 0.3 0 0 0 0.1 0 0.2 0 0.1 0 0.3 0.1 0.4 0.1 0.2 0.3 0.4 0.4 0.5 0.2 0.1 0.4 0.6 0.6 0.6 0.2 0 0.4-0.1 0.5-0.1 0.2 0 0.4 0 0.6-0.1 0.2-0.1 0.1-0.3 0.3-0.5 0.1-0.1 0.3 0 0.4-0.1 0.2-0.1 0.3-0.3 0.4-0.5 0-0.1 0-0.1 0-0.2 0-0.1 0.1-0.2 0.1-0.3 0-0.1-0.1-0.1-0.1-0.2 0-0.1 0-0.2 0-0.3 0-0.2 0-0.4-0.1-0.5-0.4-0.7-1.2-0.9-2-0.8-0.2 0-0.3 0.1-0.4 0.2-0.2 0.1-0.1 0.2-0.3 0.2-0.1 0-0.2 0.1-0.2 0.2C31.1-64 31.1-64.1 31.1-64 31.1-64 31.1-64 31.1-64M23.5-64c0 0.1 0 0.1 0 0.2-0.1 0.1-0.1 0.1-0.2 0.1-0.1 0.1-0.1 0.3-0.1 0.4-0.2 0.1 0 0.2 0 0.3 0 0 0 0.1 0 0.2 0 0.1 0 0.3 0.1 0.4 0.1 0.2 0.3 0.4 0.4 0.5 0.2 0.1 0.4 0.6 0.6 0.6 0.2 0 0.4-0.1 0.5-0.1 0.2 0 0.4 0 0.6-0.1 0.2-0.1 0.1-0.3 0.3-0.5 0.1-0.1 0.3 0 0.4-0.1 0.2-0.1 0.3-0.3 0.4-0.5 0-0.1 0-0.1 0-0.2 0-0.1 0.1-0.2 0.1-0.3 0-0.1-0.1-0.1-0.1-0.2 0-0.1 0-0.2 0-0.3 0-0.2 0-0.4-0.1-0.5-0.4-0.7-1.2-0.9-2-0.8-0.2 0-0.3 0.1-0.4 0.2-0.2 0.1-0.1 0.2-0.3 0.2-0.1 0-0.2 0.1-0.2 0.2C23.5-64 23.5-64.1 23.5-64 23.5-64 23.5-64 23.5-64M15.8-64c0 0.1 0 0.1 0 0.2-0.1 0.1-0.1 0.1-0.2 0.1-0.1 0.1-0.1 0.3-0.1 0.4-0.2 0.1 0 0.2 0 0.3 0 0 0 0.1 0 0.2 0 0.1 0 0.3 0.1 0.4 0.1 0.2 0.3 0.4 0.4 0.5 0.2 0.1 0.4 0.6 0.6 0.6 0.2 0 0.4-0.1 0.5-0.1 0.2 0 0.4 0 0.6-0.1 0.2-0.1 0.1-0.3 0.3-0.5 0.1-0.1 0.3 0 0.4-0.1 0.2-0.1 0.3-0.3 0.4-0.5 0-0.1 0-0.1 0-0.2 0-0.1 0.1-0.2 0.1-0.3 0-0.1-0.1-0.1-0.1-0.2 0-0.1 0-0.2 0-0.3 0-0.2 0-0.4-0.1-0.5-0.4-0.7-1.2-0.9-2-0.8-0.2 0-0.3 0.1-0.4 0.2-0.2 0.1-0.1 0.2-0.3 0.2-0.1 0-0.2 0.1-0.2 0.2C15.8-64 15.8-64.1 15.8-64 15.8-64 15.8-64 15.8-64M8.2-64c0 0.1 0 0.1 0 0.2C8.1-63.7 8-63.7 8-63.7c-0.1 0.1-0.1 0.3-0.1 0.4-0.2 0.1 0 0.2 0 0.3 0 0 0 0.1 0 0.2 0 0.1 0 0.3 0.1 0.4C8-62.2 8.2-62 8.3-61.9c0.2 0.1 0.4 0.6 0.6 0.6 0.2 0 0.4-0.1 0.5-0.1 0.2 0 0.4 0 0.6-0.1 0.2-0.1 0.1-0.3 0.3-0.5 0.1-0.1 0.3 0 0.4-0.1 0.2-0.1 0.3-0.3 0.4-0.5 0-0.1 0-0.1 0-0.2 0-0.1 0.1-0.2 0.1-0.3 0-0.1-0.1-0.1-0.1-0.2 0-0.1 0-0.2 0-0.3 0-0.2 0-0.4-0.1-0.5-0.4-0.7-1.2-0.9-2-0.8-0.2 0-0.3 0.1-0.4 0.2-0.2 0.1-0.1 0.2-0.3 0.2-0.1 0-0.2 0.1-0.2 0.2C8.2-64 8.2-64.1 8.2-64 8.1-64 8.1-64 8.2-64M0.5-64c0 0.1 0 0.1 0 0.2-0.1 0.1-0.1 0.1-0.2 0.1-0.1 0.1-0.1 0.3-0.1 0.4-0.2 0.1 0 0.2 0 0.3 0 0 0 0.1 0 0.2 0 0.1 0 0.3 0.1 0.4 0.1 0.2 0.3 0.4 0.4 0.5 0.2 0.1 0.4 0.6 0.6 0.6 0.2 0 0.4-0.1 0.5-0.1 0.2 0 0.4 0 0.6-0.1 0.2-0.1 0.1-0.3 0.3-0.5C2.8-62 3-61.9 3.1-62c0.2-0.1 0.3-0.3 0.4-0.5 0-0.1 0-0.1 0-0.2 0-0.1 0.1-0.2 0.1-0.3 0-0.1-0.1-0.1-0.1-0.2 0-0.1 0-0.2 0-0.3 0-0.2 0-0.4-0.1-0.5-0.4-0.7-1.2-0.9-2-0.8-0.2 0-0.3 0.1-0.4 0.2-0.2 0.1-0.1 0.2-0.3 0.2-0.1 0-0.2 0.1-0.2 0.2C0.5-64 0.5-64.1 0.5-64 0.5-64 0.5-64 0.5-64" class="a"/><path d="M69.4-56.3c0 0.1 0 0.1 0 0.2-0.1 0.1-0.1 0.1-0.2 0.1-0.1 0.1-0.1 0.3-0.1 0.4-0.2 0.1 0 0.2 0 0.3 0 0 0 0.1 0 0.2 0 0.1 0 0.3 0.1 0.4 0.1 0.2 0.3 0.4 0.4 0.5 0.2 0.1 0.4 0.6 0.6 0.6 0.2 0 0.4-0.1 0.5-0.1 0.2 0 0.4 0 0.6-0.1 0.2-0.1 0.1-0.3 0.3-0.5 0.1-0.1 0.3 0 0.4-0.1 0.2-0.1 0.3-0.3 0.4-0.5 0-0.1 0-0.1 0-0.2 0-0.1 0.1-0.2 0.1-0.3 0-0.1-0.1-0.1-0.1-0.2 0-0.1 0-0.2 0-0.3 0-0.2 0-0.4-0.1-0.5-0.4-0.7-1.2-0.9-2-0.8-0.2 0-0.3 0.1-0.4 0.2-0.2 0.1-0.1 0.2-0.3 0.2-0.1 0-0.2 0.1-0.2 0.2C69.4-56.4 69.4-56.4 69.4-56.3 69.4-56.3 69.4-56.3 69.4-56.3M61.8-56.3c0 0.1 0 0.1 0 0.2-0.1 0.1-0.1 0.1-0.2 0.1-0.1 0.1-0.1 0.3-0.1 0.4-0.2 0.1 0 0.2 0 0.3 0 0 0 0.1 0 0.2 0 0.1 0 0.3 0.1 0.4 0.1 0.2 0.3 0.4 0.4 0.5 0.2 0.1 0.4 0.6 0.6 0.6 0.2 0 0.4-0.1 0.5-0.1 0.2 0 0.4 0 0.6-0.1 0.2-0.1 0.1-0.3 0.3-0.5 0.1-0.1 0.3 0 0.4-0.1 0.2-0.1 0.3-0.3 0.4-0.5 0-0.1 0-0.1 0-0.2 0-0.1 0.1-0.2 0.1-0.3 0-0.1-0.1-0.1-0.1-0.2 0-0.1 0-0.2 0-0.3 0-0.2 0-0.4-0.1-0.5-0.4-0.7-1.2-0.9-2-0.8-0.2 0-0.3 0.1-0.4 0.2-0.2 0.1-0.1 0.2-0.3 0.2-0.1 0-0.2 0.1-0.2 0.2C61.8-56.4 61.8-56.4 61.8-56.3 61.8-56.3 61.8-56.3 61.8-56.3M54.1-56.3c0 0.1 0 0.1 0 0.2C54-56.1 54-56.1 53.9-56c-0.1 0.1-0.1 0.3-0.1 0.4-0.2 0.1 0 0.2 0 0.3 0 0 0 0.1 0 0.2 0 0.1 0 0.3 0.1 0.4 0.1 0.2 0.3 0.4 0.4 0.5 0.2 0.1 0.4 0.6 0.6 0.6 0.2 0 0.4-0.1 0.5-0.1 0.2 0 0.4 0 0.6-0.1 0.2-0.1 0.1-0.3 0.3-0.5 0.1-0.1 0.3 0 0.4-0.1 0.2-0.1 0.3-0.3 0.4-0.5 0-0.1 0-0.1 0-0.2 0-0.1 0.1-0.2 0.1-0.3 0-0.1-0.1-0.1-0.1-0.2 0-0.1 0-0.2 0-0.3 0-0.2 0-0.4-0.1-0.5-0.4-0.7-1.2-0.9-2-0.8-0.2 0-0.3 0.1-0.4 0.2-0.2 0.1-0.1 0.2-0.3 0.2-0.1 0-0.2 0.1-0.2 0.2C54.1-56.4 54.1-56.4 54.1-56.3 54.1-56.3 54.1-56.3 54.1-56.3M46.5-56.3c0 0.1 0 0.1 0 0.2-0.1 0.1-0.1 0.1-0.2 0.1-0.1 0.1-0.1 0.3-0.1 0.4-0.2 0.1 0 0.2 0 0.3 0 0 0 0.1 0 0.2 0 0.1 0 0.3 0.1 0.4 0.1 0.2 0.3 0.4 0.4 0.5 0.2 0.1 0.4 0.6 0.6 0.6 0.2 0 0.4-0.1 0.5-0.1 0.2 0 0.4 0 0.6-0.1 0.2-0.1 0.1-0.3 0.3-0.5 0.1-0.1 0.3 0 0.4-0.1 0.2-0.1 0.3-0.3 0.4-0.5 0-0.1 0-0.1 0-0.2 0-0.1 0.1-0.2 0.1-0.3 0-0.1-0.1-0.1-0.1-0.2 0-0.1 0-0.2 0-0.3 0-0.2 0-0.4-0.1-0.5-0.4-0.7-1.2-0.9-2-0.8-0.2 0-0.3 0.1-0.4 0.2-0.2 0.1-0.1 0.2-0.3 0.2-0.1 0-0.2 0.1-0.2 0.2C46.5-56.4 46.5-56.4 46.5-56.3 46.5-56.3 46.5-56.3 46.5-56.3M38.8-56.3c0 0.1 0 0.1 0 0.2-0.1 0.1-0.1 0.1-0.2 0.1-0.1 0.1-0.1 0.3-0.1 0.4-0.2 0.1 0 0.2 0 0.3 0 0 0 0.1 0 0.2 0 0.1 0 0.3 0.1 0.4 0.1 0.2 0.3 0.4 0.4 0.5 0.2 0.1 0.4 0.6 0.6 0.6 0.2 0 0.4-0.1 0.5-0.1 0.2 0 0.4 0 0.6-0.1 0.2-0.1 0.1-0.3 0.3-0.5 0.1-0.1 0.3 0 0.4-0.1 0.2-0.1 0.3-0.3 0.4-0.5 0-0.1 0-0.1 0-0.2 0-0.1 0.1-0.2 0.1-0.3 0-0.1-0.1-0.1-0.1-0.2 0-0.1 0-0.2 0-0.3 0-0.2 0-0.4-0.1-0.5-0.4-0.7-1.2-0.9-2-0.8-0.2 0-0.3 0.1-0.4 0.2-0.2 0.1-0.1 0.2-0.3 0.2-0.1 0-0.2 0.1-0.2 0.2C38.8-56.4 38.8-56.4 38.8-56.3 38.8-56.3 38.8-56.3 38.8-56.3M31.1-56.3c0 0.1 0 0.1 0 0.2-0.1 0.1-0.1 0.1-0.2 0.1-0.1 0.1-0.1 0.3-0.1 0.4-0.2 0.1 0 0.2 0 0.3 0 0 0 0.1 0 0.2 0 0.1 0 0.3 0.1 0.4 0.1 0.2 0.3 0.4 0.4 0.5 0.2 0.1 0.4 0.6 0.6 0.6 0.2 0 0.4-0.1 0.5-0.1 0.2 0 0.4 0 0.6-0.1 0.2-0.1 0.1-0.3 0.3-0.5 0.1-0.1 0.3 0 0.4-0.1 0.2-0.1 0.3-0.3 0.4-0.5 0-0.1 0-0.1 0-0.2 0-0.1 0.1-0.2 0.1-0.3 0-0.1-0.1-0.1-0.1-0.2 0-0.1 0-0.2 0-0.3 0-0.2 0-0.4-0.1-0.5-0.4-0.7-1.2-0.9-2-0.8-0.2 0-0.3 0.1-0.4 0.2-0.2 0.1-0.1 0.2-0.3 0.2-0.1 0-0.2 0.1-0.2 0.2C31.1-56.4 31.1-56.4 31.1-56.3 31.1-56.3 31.1-56.3 31.1-56.3M23.5-56.3c0 0.1 0 0.1 0 0.2-0.1 0.1-0.1 0.1-0.2 0.1-0.1 0.1-0.1 0.3-0.1 0.4-0.2 0.1 0 0.2 0 0.3 0 0 0 0.1 0 0.2 0 0.1 0 0.3 0.1 0.4 0.1 0.2 0.3 0.4 0.4 0.5 0.2 0.1 0.4 0.6 0.6 0.6 0.2 0 0.4-0.1 0.5-0.1 0.2 0 0.4 0 0.6-0.1 0.2-0.1 0.1-0.3 0.3-0.5 0.1-0.1 0.3 0 0.4-0.1 0.2-0.1 0.3-0.3 0.4-0.5 0-0.1 0-0.1 0-0.2 0-0.1 0.1-0.2 0.1-0.3 0-0.1-0.1-0.1-0.1-0.2 0-0.1 0-0.2 0-0.3 0-0.2 0-0.4-0.1-0.5-0.4-0.7-1.2-0.9-2-0.8-0.2 0-0.3 0.1-0.4 0.2-0.2 0.1-0.1 0.2-0.3 0.2-0.1 0-0.2 0.1-0.2 0.2C23.5-56.4 23.5-56.4 23.5-56.3 23.5-56.3 23.5-56.3 23.5-56.3M15.8-56.3c0 0.1 0 0.1 0 0.2-0.1 0.1-0.1 0.1-0.2 0.1-0.1 0.1-0.1 0.3-0.1 0.4-0.2 0.1 0 0.2 0 0.3 0 0 0 0.1 0 0.2 0 0.1 0 0.3 0.1 0.4 0.1 0.2 0.3 0.4 0.4 0.5 0.2 0.1 0.4 0.6 0.6 0.6 0.2 0 0.4-0.1 0.5-0.1 0.2 0 0.4 0 0.6-0.1 0.2-0.1 0.1-0.3 0.3-0.5 0.1-0.1 0.3 0 0.4-0.1 0.2-0.1 0.3-0.3 0.4-0.5 0-0.1 0-0.1 0-0.2 0-0.1 0.1-0.2 0.1-0.3 0-0.1-0.1-0.1-0.1-0.2 0-0.1 0-0.2 0-0.3 0-0.2 0-0.4-0.1-0.5-0.4-0.7-1.2-0.9-2-0.8-0.2 0-0.3 0.1-0.4 0.2-0.2 0.1-0.1 0.2-0.3 0.2-0.1 0-0.2 0.1-0.2 0.2C15.8-56.4 15.8-56.4 15.8-56.3 15.8-56.3 15.8-56.3 15.8-56.3M8.2-56.3c0 0.1 0 0.1 0 0.2C8.1-56.1 8-56.1 8-56c-0.1 0.1-0.1 0.3-0.1 0.4-0.2 0.1 0 0.2 0 0.3 0 0 0 0.1 0 0.2 0 0.1 0 0.3 0.1 0.4 0.1 0.2 0.3 0.4 0.4 0.5 0.2 0.1 0.4 0.6 0.6 0.6 0.2 0 0.4-0.1 0.5-0.1 0.2 0 0.4 0 0.6-0.1 0.2-0.1 0.1-0.3 0.3-0.5 0.1-0.1 0.3 0 0.4-0.1 0.2-0.1 0.3-0.3 0.4-0.5 0-0.1 0-0.1 0-0.2 0-0.1 0.1-0.2 0.1-0.3 0-0.1-0.1-0.1-0.1-0.2 0-0.1 0-0.2 0-0.3 0-0.2 0-0.4-0.1-0.5-0.4-0.7-1.2-0.9-2-0.8-0.2 0-0.3 0.1-0.4 0.2-0.2 0.1-0.1 0.2-0.3 0.2-0.1 0-0.2 0.1-0.2 0.2C8.2-56.4 8.2-56.4 8.2-56.3 8.1-56.3 8.1-56.3 8.2-56.3M0.5-56.3c0 0.1 0 0.1 0 0.2-0.1 0.1-0.1 0.1-0.2 0.1-0.1 0.1-0.1 0.3-0.1 0.4-0.2 0.1 0 0.2 0 0.3 0 0 0 0.1 0 0.2 0 0.1 0 0.3 0.1 0.4 0.1 0.2 0.3 0.4 0.4 0.5 0.2 0.1 0.4 0.6 0.6 0.6 0.2 0 0.4-0.1 0.5-0.1 0.2 0 0.4 0 0.6-0.1 0.2-0.1 0.1-0.3 0.3-0.5 0.1-0.1 0.3 0 0.4-0.1 0.2-0.1 0.3-0.3 0.4-0.5 0-0.1 0-0.1 0-0.2 0-0.1 0.1-0.2 0.1-0.3 0-0.1-0.1-0.1-0.1-0.2 0-0.1 0-0.2 0-0.3 0-0.2 0-0.4-0.1-0.5-0.4-0.7-1.2-0.9-2-0.8-0.2 0-0.3 0.1-0.4 0.2-0.2 0.1-0.1 0.2-0.3 0.2-0.1 0-0.2 0.1-0.2 0.2C0.5-56.4 0.5-56.4 0.5-56.3 0.5-56.3 0.5-56.3 0.5-56.3" class="a"/><path d="M69.4-48.7c0 0.1 0 0.1 0 0.2-0.1 0.1-0.1 0.1-0.2 0.1-0.1 0.1-0.1 0.3-0.1 0.4-0.2 0.1 0 0.2 0 0.3 0 0 0 0.1 0 0.2 0 0.1 0 0.3 0.1 0.4 0.1 0.2 0.3 0.4 0.4 0.5 0.2 0.1 0.4 0.6 0.6 0.6 0.2 0 0.4-0.1 0.5-0.1 0.2 0 0.4 0 0.6-0.1 0.2-0.1 0.1-0.3 0.3-0.5 0.1-0.1 0.3 0 0.4-0.1 0.2-0.1 0.3-0.3 0.4-0.5 0-0.1 0-0.1 0-0.2 0-0.1 0.1-0.2 0.1-0.3 0-0.1-0.1-0.1-0.1-0.2 0-0.1 0-0.2 0-0.3 0-0.2 0-0.4-0.1-0.5-0.4-0.7-1.2-0.9-2-0.8-0.2 0-0.3 0.1-0.4 0.2-0.2 0.1-0.1 0.2-0.3 0.2-0.1 0-0.2 0.1-0.2 0.2C69.4-48.7 69.4-48.8 69.4-48.7 69.4-48.7 69.4-48.7 69.4-48.7M61.8-48.7c0 0.1 0 0.1 0 0.2-0.1 0.1-0.1 0.1-0.2 0.1-0.1 0.1-0.1 0.3-0.1 0.4-0.2 0.1 0 0.2 0 0.3 0 0 0 0.1 0 0.2 0 0.1 0 0.3 0.1 0.4 0.1 0.2 0.3 0.4 0.4 0.5 0.2 0.1 0.4 0.6 0.6 0.6 0.2 0 0.4-0.1 0.5-0.1 0.2 0 0.4 0 0.6-0.1 0.2-0.1 0.1-0.3 0.3-0.5 0.1-0.1 0.3 0 0.4-0.1 0.2-0.1 0.3-0.3 0.4-0.5 0-0.1 0-0.1 0-0.2 0-0.1 0.1-0.2 0.1-0.3 0-0.1-0.1-0.1-0.1-0.2 0-0.1 0-0.2 0-0.3 0-0.2 0-0.4-0.1-0.5-0.4-0.7-1.2-0.9-2-0.8-0.2 0-0.3 0.1-0.4 0.2-0.2 0.1-0.1 0.2-0.3 0.2-0.1 0-0.2 0.1-0.2 0.2C61.8-48.7 61.8-48.8 61.8-48.7 61.8-48.7 61.8-48.7 61.8-48.7M54.1-48.7c0 0.1 0 0.1 0 0.2-0.1 0.1-0.1 0.1-0.2 0.1-0.1 0.1-0.1 0.3-0.1 0.4-0.2 0.1 0 0.2 0 0.3 0 0 0 0.1 0 0.2 0 0.1 0 0.3 0.1 0.4 0.1 0.2 0.3 0.4 0.4 0.5 0.2 0.1 0.4 0.6 0.6 0.6 0.2 0 0.4-0.1 0.5-0.1 0.2 0 0.4 0 0.6-0.1 0.2-0.1 0.1-0.3 0.3-0.5 0.1-0.1 0.3 0 0.4-0.1 0.2-0.1 0.3-0.3 0.4-0.5 0-0.1 0-0.1 0-0.2 0-0.1 0.1-0.2 0.1-0.3 0-0.1-0.1-0.1-0.1-0.2 0-0.1 0-0.2 0-0.3 0-0.2 0-0.4-0.1-0.5-0.4-0.7-1.2-0.9-2-0.8-0.2 0-0.3 0.1-0.4 0.2-0.2 0.1-0.1 0.2-0.3 0.2-0.1 0-0.2 0.1-0.2 0.2C54.1-48.7 54.1-48.8 54.1-48.7 54.1-48.7 54.1-48.7 54.1-48.7M46.5-48.7c0 0.1 0 0.1 0 0.2-0.1 0.1-0.1 0.1-0.2 0.1-0.1 0.1-0.1 0.3-0.1 0.4-0.2 0.1 0 0.2 0 0.3 0 0 0 0.1 0 0.2 0 0.1 0 0.3 0.1 0.4 0.1 0.2 0.3 0.4 0.4 0.5 0.2 0.1 0.4 0.6 0.6 0.6 0.2 0 0.4-0.1 0.5-0.1 0.2 0 0.4 0 0.6-0.1 0.2-0.1 0.1-0.3 0.3-0.5 0.1-0.1 0.3 0 0.4-0.1 0.2-0.1 0.3-0.3 0.4-0.5 0-0.1 0-0.1 0-0.2 0-0.1 0.1-0.2 0.1-0.3 0-0.1-0.1-0.1-0.1-0.2 0-0.1 0-0.2 0-0.3 0-0.2 0-0.4-0.1-0.5-0.4-0.7-1.2-0.9-2-0.8-0.2 0-0.3 0.1-0.4 0.2-0.2 0.1-0.1 0.2-0.3 0.2-0.1 0-0.2 0.1-0.2 0.2C46.5-48.7 46.5-48.8 46.5-48.7 46.5-48.7 46.5-48.7 46.5-48.7M38.8-48.7c0 0.1 0 0.1 0 0.2-0.1 0.1-0.1 0.1-0.2 0.1-0.1 0.1-0.1 0.3-0.1 0.4-0.2 0.1 0 0.2 0 0.3 0 0 0 0.1 0 0.2 0 0.1 0 0.3 0.1 0.4 0.1 0.2 0.3 0.4 0.4 0.5 0.2 0.1 0.4 0.6 0.6 0.6 0.2 0 0.4-0.1 0.5-0.1 0.2 0 0.4 0 0.6-0.1 0.2-0.1 0.1-0.3 0.3-0.5 0.1-0.1 0.3 0 0.4-0.1 0.2-0.1 0.3-0.3 0.4-0.5 0-0.1 0-0.1 0-0.2 0-0.1 0.1-0.2 0.1-0.3 0-0.1-0.1-0.1-0.1-0.2 0-0.1 0-0.2 0-0.3 0-0.2 0-0.4-0.1-0.5-0.4-0.7-1.2-0.9-2-0.8-0.2 0-0.3 0.1-0.4 0.2-0.2 0.1-0.1 0.2-0.3 0.2-0.1 0-0.2 0.1-0.2 0.2C38.8-48.7 38.8-48.8 38.8-48.7 38.8-48.7 38.8-48.7 38.8-48.7M31.1-48.7c0 0.1 0 0.1 0 0.2-0.1 0.1-0.1 0.1-0.2 0.1-0.1 0.1-0.1 0.3-0.1 0.4-0.2 0.1 0 0.2 0 0.3 0 0 0 0.1 0 0.2 0 0.1 0 0.3 0.1 0.4 0.1 0.2 0.3 0.4 0.4 0.5 0.2 0.1 0.4 0.6 0.6 0.6 0.2 0 0.4-0.1 0.5-0.1 0.2 0 0.4 0 0.6-0.1 0.2-0.1 0.1-0.3 0.3-0.5 0.1-0.1 0.3 0 0.4-0.1 0.2-0.1 0.3-0.3 0.4-0.5 0-0.1 0-0.1 0-0.2 0-0.1 0.1-0.2 0.1-0.3 0-0.1-0.1-0.1-0.1-0.2 0-0.1 0-0.2 0-0.3 0-0.2 0-0.4-0.1-0.5-0.4-0.7-1.2-0.9-2-0.8-0.2 0-0.3 0.1-0.4 0.2-0.2 0.1-0.1 0.2-0.3 0.2-0.1 0-0.2 0.1-0.2 0.2C31.1-48.7 31.1-48.8 31.1-48.7 31.1-48.7 31.1-48.7 31.1-48.7M23.5-48.7c0 0.1 0 0.1 0 0.2-0.1 0.1-0.1 0.1-0.2 0.1-0.1 0.1-0.1 0.3-0.1 0.4-0.2 0.1 0 0.2 0 0.3 0 0 0 0.1 0 0.2 0 0.1 0 0.3 0.1 0.4 0.1 0.2 0.3 0.4 0.4 0.5 0.2 0.1 0.4 0.6 0.6 0.6 0.2 0 0.4-0.1 0.5-0.1 0.2 0 0.4 0 0.6-0.1 0.2-0.1 0.1-0.3 0.3-0.5 0.1-0.1 0.3 0 0.4-0.1 0.2-0.1 0.3-0.3 0.4-0.5 0-0.1 0-0.1 0-0.2 0-0.1 0.1-0.2 0.1-0.3 0-0.1-0.1-0.1-0.1-0.2 0-0.1 0-0.2 0-0.3 0-0.2 0-0.4-0.1-0.5-0.4-0.7-1.2-0.9-2-0.8-0.2 0-0.3 0.1-0.4 0.2-0.2 0.1-0.1 0.2-0.3 0.2-0.1 0-0.2 0.1-0.2 0.2C23.5-48.7 23.5-48.8 23.5-48.7 23.5-48.7 23.5-48.7 23.5-48.7M15.8-48.7c0 0.1 0 0.1 0 0.2-0.1 0.1-0.1 0.1-0.2 0.1-0.1 0.1-0.1 0.3-0.1 0.4-0.2 0.1 0 0.2 0 0.3 0 0 0 0.1 0 0.2 0 0.1 0 0.3 0.1 0.4 0.1 0.2 0.3 0.4 0.4 0.5 0.2 0.1 0.4 0.6 0.6 0.6 0.2 0 0.4-0.1 0.5-0.1 0.2 0 0.4 0 0.6-0.1 0.2-0.1 0.1-0.3 0.3-0.5 0.1-0.1 0.3 0 0.4-0.1 0.2-0.1 0.3-0.3 0.4-0.5 0-0.1 0-0.1 0-0.2 0-0.1 0.1-0.2 0.1-0.3 0-0.1-0.1-0.1-0.1-0.2 0-0.1 0-0.2 0-0.3 0-0.2 0-0.4-0.1-0.5-0.4-0.7-1.2-0.9-2-0.8-0.2 0-0.3 0.1-0.4 0.2-0.2 0.1-0.1 0.2-0.3 0.2-0.1 0-0.2 0.1-0.2 0.2C15.8-48.7 15.8-48.8 15.8-48.7 15.8-48.7 15.8-48.7 15.8-48.7M8.2-48.7c0 0.1 0 0.1 0 0.2C8.1-48.4 8-48.4 8-48.4c-0.1 0.1-0.1 0.3-0.1 0.4-0.2 0.1 0 0.2 0 0.3 0 0 0 0.1 0 0.2 0 0.1 0 0.3 0.1 0.4 0.1 0.2 0.3 0.4 0.4 0.5C8.5-46.4 8.7-46 8.9-46c0.2 0 0.4-0.1 0.5-0.1 0.2 0 0.4 0 0.6-0.1 0.2-0.1 0.1-0.3 0.3-0.5 0.1-0.1 0.3 0 0.4-0.1 0.2-0.1 0.3-0.3 0.4-0.5 0-0.1 0-0.1 0-0.2 0-0.1 0.1-0.2 0.1-0.3 0-0.1-0.1-0.1-0.1-0.2 0-0.1 0-0.2 0-0.3 0-0.2 0-0.4-0.1-0.5-0.4-0.7-1.2-0.9-2-0.8-0.2 0-0.3 0.1-0.4 0.2-0.2 0.1-0.1 0.2-0.3 0.2-0.1 0-0.2 0.1-0.2 0.2C8.2-48.7 8.2-48.8 8.2-48.7 8.1-48.7 8.1-48.7 8.2-48.7M0.5-48.7c0 0.1 0 0.1 0 0.2-0.1 0.1-0.1 0.1-0.2 0.1-0.1 0.1-0.1 0.3-0.1 0.4-0.2 0.1 0 0.2 0 0.3 0 0 0 0.1 0 0.2 0 0.1 0 0.3 0.1 0.4 0.1 0.2 0.3 0.4 0.4 0.5C0.9-46.4 1-46 1.3-46c0.2 0 0.4-0.1 0.5-0.1 0.2 0 0.4 0 0.6-0.1 0.2-0.1 0.1-0.3 0.3-0.5 0.1-0.1 0.3 0 0.4-0.1 0.2-0.1 0.3-0.3 0.4-0.5 0-0.1 0-0.1 0-0.2 0-0.1 0.1-0.2 0.1-0.3 0-0.1-0.1-0.1-0.1-0.2 0-0.1 0-0.2 0-0.3 0-0.2 0-0.4-0.1-0.5-0.4-0.7-1.2-0.9-2-0.8-0.2 0-0.3 0.1-0.4 0.2-0.2 0.1-0.1 0.2-0.3 0.2-0.1 0-0.2 0.1-0.2 0.2C0.5-48.7 0.5-48.8 0.5-48.7 0.5-48.7 0.5-48.7 0.5-48.7" class="a"/><path d="M69.4-41c0 0.1 0 0.1 0 0.2-0.1 0.1-0.1 0.1-0.2 0.1-0.1 0.1-0.1 0.3-0.1 0.4-0.2 0.1 0 0.2 0 0.3 0 0 0 0.1 0 0.2 0 0.1 0 0.3 0.1 0.4 0.1 0.2 0.3 0.4 0.4 0.5 0.2 0.1 0.4 0.6 0.6 0.6 0.2 0 0.4-0.1 0.5-0.1 0.2 0 0.4 0 0.6-0.1 0.2-0.1 0.1-0.3 0.3-0.5 0.1-0.1 0.3 0 0.4-0.1 0.2-0.1 0.3-0.3 0.4-0.5 0-0.1 0-0.1 0-0.2 0-0.1 0.1-0.2 0.1-0.3 0-0.1-0.1-0.1-0.1-0.2 0-0.1 0-0.2 0-0.3 0-0.2 0-0.4-0.1-0.5-0.4-0.7-1.2-0.9-2-0.8-0.2 0-0.3 0.1-0.4 0.2-0.2 0.1-0.1 0.2-0.3 0.2-0.1 0-0.2 0.1-0.2 0.2C69.4-41.1 69.4-41.1 69.4-41 69.4-41 69.4-41 69.4-41M61.8-41c0 0.1 0 0.1 0 0.2-0.1 0.1-0.1 0.1-0.2 0.1-0.1 0.1-0.1 0.3-0.1 0.4-0.2 0.1 0 0.2 0 0.3 0 0 0 0.1 0 0.2 0 0.1 0 0.3 0.1 0.4 0.1 0.2 0.3 0.4 0.4 0.5 0.2 0.1 0.4 0.6 0.6 0.6 0.2 0 0.4-0.1 0.5-0.1 0.2 0 0.4 0 0.6-0.1 0.2-0.1 0.1-0.3 0.3-0.5 0.1-0.1 0.3 0 0.4-0.1 0.2-0.1 0.3-0.3 0.4-0.5 0-0.1 0-0.1 0-0.2 0-0.1 0.1-0.2 0.1-0.3 0-0.1-0.1-0.1-0.1-0.2 0-0.1 0-0.2 0-0.3 0-0.2 0-0.4-0.1-0.5-0.4-0.7-1.2-0.9-2-0.8-0.2 0-0.3 0.1-0.4 0.2-0.2 0.1-0.1 0.2-0.3 0.2-0.1 0-0.2 0.1-0.2 0.2C61.8-41.1 61.8-41.1 61.8-41 61.8-41 61.8-41 61.8-41M54.1-41c0 0.1 0 0.1 0 0.2-0.1 0.1-0.1 0.1-0.2 0.1-0.1 0.1-0.1 0.3-0.1 0.4-0.2 0.1 0 0.2 0 0.3 0 0 0 0.1 0 0.2 0 0.1 0 0.3 0.1 0.4 0.1 0.2 0.3 0.4 0.4 0.5 0.2 0.1 0.4 0.6 0.6 0.6 0.2 0 0.4-0.1 0.5-0.1 0.2 0 0.4 0 0.6-0.1 0.2-0.1 0.1-0.3 0.3-0.5 0.1-0.1 0.3 0 0.4-0.1 0.2-0.1 0.3-0.3 0.4-0.5 0-0.1 0-0.1 0-0.2 0-0.1 0.1-0.2 0.1-0.3 0-0.1-0.1-0.1-0.1-0.2 0-0.1 0-0.2 0-0.3 0-0.2 0-0.4-0.1-0.5-0.4-0.7-1.2-0.9-2-0.8-0.2 0-0.3 0.1-0.4 0.2-0.2 0.1-0.1 0.2-0.3 0.2-0.1 0-0.2 0.1-0.2 0.2C54.1-41.1 54.1-41.1 54.1-41 54.1-41 54.1-41 54.1-41M46.5-41c0 0.1 0 0.1 0 0.2-0.1 0.1-0.1 0.1-0.2 0.1-0.1 0.1-0.1 0.3-0.1 0.4-0.2 0.1 0 0.2 0 0.3 0 0 0 0.1 0 0.2 0 0.1 0 0.3 0.1 0.4 0.1 0.2 0.3 0.4 0.4 0.5 0.2 0.1 0.4 0.6 0.6 0.6 0.2 0 0.4-0.1 0.5-0.1 0.2 0 0.4 0 0.6-0.1 0.2-0.1 0.1-0.3 0.3-0.5 0.1-0.1 0.3 0 0.4-0.1 0.2-0.1 0.3-0.3 0.4-0.5 0-0.1 0-0.1 0-0.2 0-0.1 0.1-0.2 0.1-0.3 0-0.1-0.1-0.1-0.1-0.2 0-0.1 0-0.2 0-0.3 0-0.2 0-0.4-0.1-0.5-0.4-0.7-1.2-0.9-2-0.8-0.2 0-0.3 0.1-0.4 0.2-0.2 0.1-0.1 0.2-0.3 0.2-0.1 0-0.2 0.1-0.2 0.2C46.5-41.1 46.5-41.1 46.5-41 46.5-41 46.5-41 46.5-41M38.8-41c0 0.1 0 0.1 0 0.2-0.1 0.1-0.1 0.1-0.2 0.1-0.1 0.1-0.1 0.3-0.1 0.4-0.2 0.1 0 0.2 0 0.3 0 0 0 0.1 0 0.2 0 0.1 0 0.3 0.1 0.4 0.1 0.2 0.3 0.4 0.4 0.5 0.2 0.1 0.4 0.6 0.6 0.6 0.2 0 0.4-0.1 0.5-0.1 0.2 0 0.4 0 0.6-0.1 0.2-0.1 0.1-0.3 0.3-0.5 0.1-0.1 0.3 0 0.4-0.1 0.2-0.1 0.3-0.3 0.4-0.5 0-0.1 0-0.1 0-0.2 0-0.1 0.1-0.2 0.1-0.3 0-0.1-0.1-0.1-0.1-0.2 0-0.1 0-0.2 0-0.3 0-0.2 0-0.4-0.1-0.5-0.4-0.7-1.2-0.9-2-0.8-0.2 0-0.3 0.1-0.4 0.2-0.2 0.1-0.1 0.2-0.3 0.2-0.1 0-0.2 0.1-0.2 0.2C38.8-41.1 38.8-41.1 38.8-41 38.8-41 38.8-41 38.8-41M31.1-41c0 0.1 0 0.1 0 0.2-0.1 0.1-0.1 0.1-0.2 0.1-0.1 0.1-0.1 0.3-0.1 0.4-0.2 0.1 0 0.2 0 0.3 0 0 0 0.1 0 0.2 0 0.1 0 0.3 0.1 0.4 0.1 0.2 0.3 0.4 0.4 0.5 0.2 0.1 0.4 0.6 0.6 0.6 0.2 0 0.4-0.1 0.5-0.1 0.2 0 0.4 0 0.6-0.1 0.2-0.1 0.1-0.3 0.3-0.5 0.1-0.1 0.3 0 0.4-0.1 0.2-0.1 0.3-0.3 0.4-0.5 0-0.1 0-0.1 0-0.2 0-0.1 0.1-0.2 0.1-0.3 0-0.1-0.1-0.1-0.1-0.2 0-0.1 0-0.2 0-0.3 0-0.2 0-0.4-0.1-0.5-0.4-0.7-1.2-0.9-2-0.8-0.2 0-0.3 0.1-0.4 0.2-0.2 0.1-0.1 0.2-0.3 0.2-0.1 0-0.2 0.1-0.2 0.2C31.1-41.1 31.1-41.1 31.1-41 31.1-41 31.1-41 31.1-41M23.5-41c0 0.1 0 0.1 0 0.2-0.1 0.1-0.1 0.1-0.2 0.1-0.1 0.1-0.1 0.3-0.1 0.4-0.2 0.1 0 0.2 0 0.3 0 0 0 0.1 0 0.2 0 0.1 0 0.3 0.1 0.4 0.1 0.2 0.3 0.4 0.4 0.5 0.2 0.1 0.4 0.6 0.6 0.6 0.2 0 0.4-0.1 0.5-0.1 0.2 0 0.4 0 0.6-0.1 0.2-0.1 0.1-0.3 0.3-0.5 0.1-0.1 0.3 0 0.4-0.1 0.2-0.1 0.3-0.3 0.4-0.5 0-0.1 0-0.1 0-0.2 0-0.1 0.1-0.2 0.1-0.3 0-0.1-0.1-0.1-0.1-0.2 0-0.1 0-0.2 0-0.3 0-0.2 0-0.4-0.1-0.5-0.4-0.7-1.2-0.9-2-0.8-0.2 0-0.3 0.1-0.4 0.2-0.2 0.1-0.1 0.2-0.3 0.2-0.1 0-0.2 0.1-0.2 0.2C23.5-41.1 23.5-41.1 23.5-41 23.5-41 23.5-41 23.5-41M15.8-41c0 0.1 0 0.1 0 0.2-0.1 0.1-0.1 0.1-0.2 0.1-0.1 0.1-0.1 0.3-0.1 0.4-0.2 0.1 0 0.2 0 0.3 0 0 0 0.1 0 0.2 0 0.1 0 0.3 0.1 0.4 0.1 0.2 0.3 0.4 0.4 0.5 0.2 0.1 0.4 0.6 0.6 0.6 0.2 0 0.4-0.1 0.5-0.1 0.2 0 0.4 0 0.6-0.1 0.2-0.1 0.1-0.3 0.3-0.5 0.1-0.1 0.3 0 0.4-0.1 0.2-0.1 0.3-0.3 0.4-0.5 0-0.1 0-0.1 0-0.2 0-0.1 0.1-0.2 0.1-0.3 0-0.1-0.1-0.1-0.1-0.2 0-0.1 0-0.2 0-0.3 0-0.2 0-0.4-0.1-0.5-0.4-0.7-1.2-0.9-2-0.8-0.2 0-0.3 0.1-0.4 0.2-0.2 0.1-0.1 0.2-0.3 0.2-0.1 0-0.2 0.1-0.2 0.2C15.8-41.1 15.8-41.1 15.8-41 15.8-41 15.8-41 15.8-41M8.2-41c0 0.1 0 0.1 0 0.2C8.1-40.8 8-40.8 8-40.7c-0.1 0.1-0.1 0.3-0.1 0.4-0.2 0.1 0 0.2 0 0.3 0 0 0 0.1 0 0.2 0 0.1 0 0.3 0.1 0.4 0.1 0.2 0.3 0.4 0.4 0.5 0.2 0.1 0.4 0.6 0.6 0.6 0.2 0 0.4-0.1 0.5-0.1 0.2 0 0.4 0 0.6-0.1 0.2-0.1 0.1-0.3 0.3-0.5 0.1-0.1 0.3 0 0.4-0.1 0.2-0.1 0.3-0.3 0.4-0.5 0-0.1 0-0.1 0-0.2 0-0.1 0.1-0.2 0.1-0.3 0-0.1-0.1-0.1-0.1-0.2 0-0.1 0-0.2 0-0.3 0-0.2 0-0.4-0.1-0.5-0.4-0.7-1.2-0.9-2-0.8-0.2 0-0.3 0.1-0.4 0.2-0.2 0.1-0.1 0.2-0.3 0.2-0.1 0-0.2 0.1-0.2 0.2C8.2-41.1 8.2-41.1 8.2-41 8.1-41 8.1-41 8.2-41M0.5-41c0 0.1 0 0.1 0 0.2-0.1 0.1-0.1 0.1-0.2 0.1-0.1 0.1-0.1 0.3-0.1 0.4-0.2 0.1 0 0.2 0 0.3 0 0 0 0.1 0 0.2 0 0.1 0 0.3 0.1 0.4 0.1 0.2 0.3 0.4 0.4 0.5 0.2 0.1 0.4 0.6 0.6 0.6 0.2 0 0.4-0.1 0.5-0.1 0.2 0 0.4 0 0.6-0.1 0.2-0.1 0.1-0.3 0.3-0.5C2.8-39 3-39 3.1-39c0.2-0.1 0.3-0.3 0.4-0.5 0-0.1 0-0.1 0-0.2 0-0.1 0.1-0.2 0.1-0.3 0-0.1-0.1-0.1-0.1-0.2 0-0.1 0-0.2 0-0.3 0-0.2 0-0.4-0.1-0.5-0.4-0.7-1.2-0.9-2-0.8-0.2 0-0.3 0.1-0.4 0.2-0.2 0.1-0.1 0.2-0.3 0.2-0.1 0-0.2 0.1-0.2 0.2C0.5-41.1 0.5-41.1 0.5-41 0.5-41 0.5-41 0.5-41" class="a"/><path d="M69.4-33.4c0 0.1 0 0.1 0 0.2-0.1 0.1-0.1 0.1-0.2 0.1-0.1 0.1-0.1 0.3-0.1 0.4-0.2 0.1 0 0.2 0 0.3 0 0 0 0.1 0 0.2 0 0.1 0 0.3 0.1 0.4 0.1 0.2 0.3 0.4 0.4 0.5 0.2 0.1 0.4 0.6 0.6 0.6 0.2 0 0.4-0.1 0.5-0.1 0.2 0 0.4 0 0.6-0.1 0.2-0.1 0.1-0.3 0.3-0.5 0.1-0.1 0.3 0 0.4-0.1 0.2-0.1 0.3-0.3 0.4-0.5 0-0.1 0-0.1 0-0.2 0-0.1 0.1-0.2 0.1-0.3 0-0.1-0.1-0.1-0.1-0.2 0-0.1 0-0.2 0-0.3 0-0.2 0-0.4-0.1-0.5-0.4-0.7-1.2-0.9-2-0.8-0.2 0-0.3 0.1-0.4 0.2-0.2 0.1-0.1 0.2-0.3 0.2-0.1 0-0.2 0.1-0.2 0.2C69.4-33.4 69.4-33.5 69.4-33.4 69.4-33.4 69.4-33.4 69.4-33.4M61.8-33.4c0 0.1 0 0.1 0 0.2-0.1 0.1-0.1 0.1-0.2 0.1-0.1 0.1-0.1 0.3-0.1 0.4-0.2 0.1 0 0.2 0 0.3 0 0 0 0.1 0 0.2 0 0.1 0 0.3 0.1 0.4 0.1 0.2 0.3 0.4 0.4 0.5 0.2 0.1 0.4 0.6 0.6 0.6 0.2 0 0.4-0.1 0.5-0.1 0.2 0 0.4 0 0.6-0.1 0.2-0.1 0.1-0.3 0.3-0.5 0.1-0.1 0.3 0 0.4-0.1 0.2-0.1 0.3-0.3 0.4-0.5 0-0.1 0-0.1 0-0.2 0-0.1 0.1-0.2 0.1-0.3 0-0.1-0.1-0.1-0.1-0.2 0-0.1 0-0.2 0-0.3 0-0.2 0-0.4-0.1-0.5-0.4-0.7-1.2-0.9-2-0.8-0.2 0-0.3 0.1-0.4 0.2-0.2 0.1-0.1 0.2-0.3 0.2-0.1 0-0.2 0.1-0.2 0.2C61.8-33.4 61.8-33.5 61.8-33.4 61.8-33.4 61.8-33.4 61.8-33.4M54.1-33.4c0 0.1 0 0.1 0 0.2-0.1 0.1-0.1 0.1-0.2 0.1-0.1 0.1-0.1 0.3-0.1 0.4-0.2 0.1 0 0.2 0 0.3 0 0 0 0.1 0 0.2 0 0.1 0 0.3 0.1 0.4 0.1 0.2 0.3 0.4 0.4 0.5 0.2 0.1 0.4 0.6 0.6 0.6 0.2 0 0.4-0.1 0.5-0.1 0.2 0 0.4 0 0.6-0.1 0.2-0.1 0.1-0.3 0.3-0.5 0.1-0.1 0.3 0 0.4-0.1 0.2-0.1 0.3-0.3 0.4-0.5 0-0.1 0-0.1 0-0.2 0-0.1 0.1-0.2 0.1-0.3 0-0.1-0.1-0.1-0.1-0.2 0-0.1 0-0.2 0-0.3 0-0.2 0-0.4-0.1-0.5-0.4-0.7-1.2-0.9-2-0.8-0.2 0-0.3 0.1-0.4 0.2-0.2 0.1-0.1 0.2-0.3 0.2-0.1 0-0.2 0.1-0.2 0.2C54.1-33.4 54.1-33.5 54.1-33.4 54.1-33.4 54.1-33.4 54.1-33.4M46.5-33.4c0 0.1 0 0.1 0 0.2-0.1 0.1-0.1 0.1-0.2 0.1-0.1 0.1-0.1 0.3-0.1 0.4-0.2 0.1 0 0.2 0 0.3 0 0 0 0.1 0 0.2 0 0.1 0 0.3 0.1 0.4 0.1 0.2 0.3 0.4 0.4 0.5 0.2 0.1 0.4 0.6 0.6 0.6 0.2 0 0.4-0.1 0.5-0.1 0.2 0 0.4 0 0.6-0.1 0.2-0.1 0.1-0.3 0.3-0.5 0.1-0.1 0.3 0 0.4-0.1 0.2-0.1 0.3-0.3 0.4-0.5 0-0.1 0-0.1 0-0.2 0-0.1 0.1-0.2 0.1-0.3 0-0.1-0.1-0.1-0.1-0.2 0-0.1 0-0.2 0-0.3 0-0.2 0-0.4-0.1-0.5-0.4-0.7-1.2-0.9-2-0.8-0.2 0-0.3 0.1-0.4 0.2-0.2 0.1-0.1 0.2-0.3 0.2-0.1 0-0.2 0.1-0.2 0.2C46.5-33.4 46.5-33.5 46.5-33.4 46.5-33.4 46.5-33.4 46.5-33.4M38.8-33.4c0 0.1 0 0.1 0 0.2-0.1 0.1-0.1 0.1-0.2 0.1-0.1 0.1-0.1 0.3-0.1 0.4-0.2 0.1 0 0.2 0 0.3 0 0 0 0.1 0 0.2 0 0.1 0 0.3 0.1 0.4 0.1 0.2 0.3 0.4 0.4 0.5 0.2 0.1 0.4 0.6 0.6 0.6 0.2 0 0.4-0.1 0.5-0.1 0.2 0 0.4 0 0.6-0.1 0.2-0.1 0.1-0.3 0.3-0.5 0.1-0.1 0.3 0 0.4-0.1 0.2-0.1 0.3-0.3 0.4-0.5 0-0.1 0-0.1 0-0.2 0-0.1 0.1-0.2 0.1-0.3 0-0.1-0.1-0.1-0.1-0.2 0-0.1 0-0.2 0-0.3 0-0.2 0-0.4-0.1-0.5-0.4-0.7-1.2-0.9-2-0.8-0.2 0-0.3 0.1-0.4 0.2-0.2 0.1-0.1 0.2-0.3 0.2-0.1 0-0.2 0.1-0.2 0.2C38.8-33.4 38.8-33.5 38.8-33.4 38.8-33.4 38.8-33.4 38.8-33.4M31.1-33.4c0 0.1 0 0.1 0 0.2-0.1 0.1-0.1 0.1-0.2 0.1-0.1 0.1-0.1 0.3-0.1 0.4-0.2 0.1 0 0.2 0 0.3 0 0 0 0.1 0 0.2 0 0.1 0 0.3 0.1 0.4 0.1 0.2 0.3 0.4 0.4 0.5 0.2 0.1 0.4 0.6 0.6 0.6 0.2 0 0.4-0.1 0.5-0.1 0.2 0 0.4 0 0.6-0.1 0.2-0.1 0.1-0.3 0.3-0.5 0.1-0.1 0.3 0 0.4-0.1 0.2-0.1 0.3-0.3 0.4-0.5 0-0.1 0-0.1 0-0.2 0-0.1 0.1-0.2 0.1-0.3 0-0.1-0.1-0.1-0.1-0.2 0-0.1 0-0.2 0-0.3 0-0.2 0-0.4-0.1-0.5-0.4-0.7-1.2-0.9-2-0.8-0.2 0-0.3 0.1-0.4 0.2-0.2 0.1-0.1 0.2-0.3 0.2-0.1 0-0.2 0.1-0.2 0.2C31.1-33.4 31.1-33.5 31.1-33.4 31.1-33.4 31.1-33.4 31.1-33.4M23.5-33.4c0 0.1 0 0.1 0 0.2-0.1 0.1-0.1 0.1-0.2 0.1-0.1 0.1-0.1 0.3-0.1 0.4-0.2 0.1 0 0.2 0 0.3 0 0 0 0.1 0 0.2 0 0.1 0 0.3 0.1 0.4 0.1 0.2 0.3 0.4 0.4 0.5 0.2 0.1 0.4 0.6 0.6 0.6 0.2 0 0.4-0.1 0.5-0.1 0.2 0 0.4 0 0.6-0.1 0.2-0.1 0.1-0.3 0.3-0.5 0.1-0.1 0.3 0 0.4-0.1 0.2-0.1 0.3-0.3 0.4-0.5 0-0.1 0-0.1 0-0.2 0-0.1 0.1-0.2 0.1-0.3 0-0.1-0.1-0.1-0.1-0.2 0-0.1 0-0.2 0-0.3 0-0.2 0-0.4-0.1-0.5-0.4-0.7-1.2-0.9-2-0.8-0.2 0-0.3 0.1-0.4 0.2-0.2 0.1-0.1 0.2-0.3 0.2-0.1 0-0.2 0.1-0.2 0.2C23.5-33.4 23.5-33.5 23.5-33.4 23.5-33.4 23.5-33.4 23.5-33.4M15.8-33.4c0 0.1 0 0.1 0 0.2-0.1 0.1-0.1 0.1-0.2 0.1-0.1 0.1-0.1 0.3-0.1 0.4-0.2 0.1 0 0.2 0 0.3 0 0 0 0.1 0 0.2 0 0.1 0 0.3 0.1 0.4 0.1 0.2 0.3 0.4 0.4 0.5 0.2 0.1 0.4 0.6 0.6 0.6 0.2 0 0.4-0.1 0.5-0.1 0.2 0 0.4 0 0.6-0.1 0.2-0.1 0.1-0.3 0.3-0.5 0.1-0.1 0.3 0 0.4-0.1 0.2-0.1 0.3-0.3 0.4-0.5 0-0.1 0-0.1 0-0.2 0-0.1 0.1-0.2 0.1-0.3 0-0.1-0.1-0.1-0.1-0.2 0-0.1 0-0.2 0-0.3 0-0.2 0-0.4-0.1-0.5-0.4-0.7-1.2-0.9-2-0.8-0.2 0-0.3 0.1-0.4 0.2-0.2 0.1-0.1 0.2-0.3 0.2-0.1 0-0.2 0.1-0.2 0.2C15.8-33.4 15.8-33.5 15.8-33.4 15.8-33.4 15.8-33.4 15.8-33.4M8.2-33.4c0 0.1 0 0.1 0 0.2C8.1-33.1 8-33.1 8-33.1c-0.1 0.1-0.1 0.3-0.1 0.4-0.2 0.1 0 0.2 0 0.3 0 0 0 0.1 0 0.2 0 0.1 0 0.3 0.1 0.4 0.1 0.2 0.3 0.4 0.4 0.5 0.2 0.1 0.4 0.6 0.6 0.6 0.2 0 0.4-0.1 0.5-0.1 0.2 0 0.4 0 0.6-0.1 0.2-0.1 0.1-0.3 0.3-0.5 0.1-0.1 0.3 0 0.4-0.1 0.2-0.1 0.3-0.3 0.4-0.5 0-0.1 0-0.1 0-0.2 0-0.1 0.1-0.2 0.1-0.3 0-0.1-0.1-0.1-0.1-0.2 0-0.1 0-0.2 0-0.3 0-0.2 0-0.4-0.1-0.5-0.4-0.7-1.2-0.9-2-0.8-0.2 0-0.3 0.1-0.4 0.2-0.2 0.1-0.1 0.2-0.3 0.2-0.1 0-0.2 0.1-0.2 0.2C8.2-33.4 8.2-33.5 8.2-33.4 8.1-33.4 8.1-33.4 8.2-33.4M0.5-33.4c0 0.1 0 0.1 0 0.2-0.1 0.1-0.1 0.1-0.2 0.1-0.1 0.1-0.1 0.3-0.1 0.4-0.2 0.1 0 0.2 0 0.3 0 0 0 0.1 0 0.2 0 0.1 0 0.3 0.1 0.4 0.1 0.2 0.3 0.4 0.4 0.5 0.2 0.1 0.4 0.6 0.6 0.6 0.2 0 0.4-0.1 0.5-0.1 0.2 0 0.4 0 0.6-0.1 0.2-0.1 0.1-0.3 0.3-0.5 0.1-0.1 0.3 0 0.4-0.1 0.2-0.1 0.3-0.3 0.4-0.5 0-0.1 0-0.1 0-0.2 0-0.1 0.1-0.2 0.1-0.3 0-0.1-0.1-0.1-0.1-0.2 0-0.1 0-0.2 0-0.3 0-0.2 0-0.4-0.1-0.5-0.4-0.7-1.2-0.9-2-0.8-0.2 0-0.3 0.1-0.4 0.2-0.2 0.1-0.1 0.2-0.3 0.2-0.1 0-0.2 0.1-0.2 0.2C0.5-33.4 0.5-33.5 0.5-33.4 0.5-33.4 0.5-33.4 0.5-33.4" class="a"/><path d="M69.4-25.7c0 0.1 0 0.1 0 0.2-0.1 0.1-0.1 0.1-0.2 0.1-0.1 0.1-0.1 0.3-0.1 0.4-0.2 0.1 0 0.2 0 0.3 0 0 0 0.1 0 0.2 0 0.1 0 0.3 0.1 0.4 0.1 0.2 0.3 0.4 0.4 0.5 0.2 0.1 0.4 0.6 0.6 0.6 0.2 0 0.4-0.1 0.5-0.1 0.2 0 0.4 0 0.6-0.1 0.2-0.1 0.1-0.3 0.3-0.5 0.1-0.1 0.3 0 0.4-0.1 0.2-0.1 0.3-0.3 0.4-0.5 0-0.1 0-0.1 0-0.2 0-0.1 0.1-0.2 0.1-0.3 0-0.1-0.1-0.1-0.1-0.2 0-0.1 0-0.2 0-0.3 0-0.2 0-0.4-0.1-0.5-0.4-0.7-1.2-0.9-2-0.8-0.2 0-0.3 0.1-0.4 0.2-0.2 0.1-0.1 0.2-0.3 0.2-0.1 0-0.2 0.1-0.2 0.2C69.4-25.8 69.4-25.8 69.4-25.7 69.4-25.7 69.4-25.7 69.4-25.7M61.8-25.7c0 0.1 0 0.1 0 0.2-0.1 0.1-0.1 0.1-0.2 0.1-0.1 0.1-0.1 0.3-0.1 0.4-0.2 0.1 0 0.2 0 0.3 0 0 0 0.1 0 0.2 0 0.1 0 0.3 0.1 0.4 0.1 0.2 0.3 0.4 0.4 0.5 0.2 0.1 0.4 0.6 0.6 0.6 0.2 0 0.4-0.1 0.5-0.1 0.2 0 0.4 0 0.6-0.1 0.2-0.1 0.1-0.3 0.3-0.5 0.1-0.1 0.3 0 0.4-0.1 0.2-0.1 0.3-0.3 0.4-0.5 0-0.1 0-0.1 0-0.2 0-0.1 0.1-0.2 0.1-0.3 0-0.1-0.1-0.1-0.1-0.2 0-0.1 0-0.2 0-0.3 0-0.2 0-0.4-0.1-0.5-0.4-0.7-1.2-0.9-2-0.8-0.2 0-0.3 0.1-0.4 0.2-0.2 0.1-0.1 0.2-0.3 0.2-0.1 0-0.2 0.1-0.2 0.2C61.8-25.8 61.8-25.8 61.8-25.7 61.8-25.7 61.8-25.7 61.8-25.7M54.1-25.7c0 0.1 0 0.1 0 0.2-0.1 0.1-0.1 0.1-0.2 0.1-0.1 0.1-0.1 0.3-0.1 0.4-0.2 0.1 0 0.2 0 0.3 0 0 0 0.1 0 0.2 0 0.1 0 0.3 0.1 0.4 0.1 0.2 0.3 0.4 0.4 0.5 0.2 0.1 0.4 0.6 0.6 0.6 0.2 0 0.4-0.1 0.5-0.1 0.2 0 0.4 0 0.6-0.1 0.2-0.1 0.1-0.3 0.3-0.5 0.1-0.1 0.3 0 0.4-0.1 0.2-0.1 0.3-0.3 0.4-0.5 0-0.1 0-0.1 0-0.2 0-0.1 0.1-0.2 0.1-0.3 0-0.1-0.1-0.1-0.1-0.2 0-0.1 0-0.2 0-0.3 0-0.2 0-0.4-0.1-0.5-0.4-0.7-1.2-0.9-2-0.8-0.2 0-0.3 0.1-0.4 0.2-0.2 0.1-0.1 0.2-0.3 0.2-0.1 0-0.2 0.1-0.2 0.2C54.1-25.8 54.1-25.8 54.1-25.7 54.1-25.7 54.1-25.7 54.1-25.7M46.5-25.7c0 0.1 0 0.1 0 0.2-0.1 0.1-0.1 0.1-0.2 0.1-0.1 0.1-0.1 0.3-0.1 0.4-0.2 0.1 0 0.2 0 0.3 0 0 0 0.1 0 0.2 0 0.1 0 0.3 0.1 0.4 0.1 0.2 0.3 0.4 0.4 0.5 0.2 0.1 0.4 0.6 0.6 0.6 0.2 0 0.4-0.1 0.5-0.1 0.2 0 0.4 0 0.6-0.1 0.2-0.1 0.1-0.3 0.3-0.5 0.1-0.1 0.3 0 0.4-0.1 0.2-0.1 0.3-0.3 0.4-0.5 0-0.1 0-0.1 0-0.2 0-0.1 0.1-0.2 0.1-0.3 0-0.1-0.1-0.1-0.1-0.2 0-0.1 0-0.2 0-0.3 0-0.2 0-0.4-0.1-0.5-0.4-0.7-1.2-0.9-2-0.8-0.2 0-0.3 0.1-0.4 0.2-0.2 0.1-0.1 0.2-0.3 0.2-0.1 0-0.2 0.1-0.2 0.2C46.5-25.8 46.5-25.8 46.5-25.7 46.5-25.7 46.5-25.7 46.5-25.7M38.8-25.7c0 0.1 0 0.1 0 0.2-0.1 0.1-0.1 0.1-0.2 0.1-0.1 0.1-0.1 0.3-0.1 0.4-0.2 0.1 0 0.2 0 0.3 0 0 0 0.1 0 0.2 0 0.1 0 0.3 0.1 0.4 0.1 0.2 0.3 0.4 0.4 0.5 0.2 0.1 0.4 0.6 0.6 0.6 0.2 0 0.4-0.1 0.5-0.1 0.2 0 0.4 0 0.6-0.1 0.2-0.1 0.1-0.3 0.3-0.5 0.1-0.1 0.3 0 0.4-0.1 0.2-0.1 0.3-0.3 0.4-0.5 0-0.1 0-0.1 0-0.2 0-0.1 0.1-0.2 0.1-0.3 0-0.1-0.1-0.1-0.1-0.2 0-0.1 0-0.2 0-0.3 0-0.2 0-0.4-0.1-0.5-0.4-0.7-1.2-0.9-2-0.8-0.2 0-0.3 0.1-0.4 0.2-0.2 0.1-0.1 0.2-0.3 0.2-0.1 0-0.2 0.1-0.2 0.2C38.8-25.8 38.8-25.8 38.8-25.7 38.8-25.7 38.8-25.7 38.8-25.7M31.1-25.7c0 0.1 0 0.1 0 0.2-0.1 0.1-0.1 0.1-0.2 0.1-0.1 0.1-0.1 0.3-0.1 0.4-0.2 0.1 0 0.2 0 0.3 0 0 0 0.1 0 0.2 0 0.1 0 0.3 0.1 0.4 0.1 0.2 0.3 0.4 0.4 0.5 0.2 0.1 0.4 0.6 0.6 0.6 0.2 0 0.4-0.1 0.5-0.1 0.2 0 0.4 0 0.6-0.1 0.2-0.1 0.1-0.3 0.3-0.5 0.1-0.1 0.3 0 0.4-0.1 0.2-0.1 0.3-0.3 0.4-0.5 0-0.1 0-0.1 0-0.2 0-0.1 0.1-0.2 0.1-0.3 0-0.1-0.1-0.1-0.1-0.2 0-0.1 0-0.2 0-0.3 0-0.2 0-0.4-0.1-0.5-0.4-0.7-1.2-0.9-2-0.8-0.2 0-0.3 0.1-0.4 0.2-0.2 0.1-0.1 0.2-0.3 0.2-0.1 0-0.2 0.1-0.2 0.2C31.1-25.8 31.1-25.8 31.1-25.7 31.1-25.7 31.1-25.7 31.1-25.7M23.5-25.7c0 0.1 0 0.1 0 0.2-0.1 0.1-0.1 0.1-0.2 0.1-0.1 0.1-0.1 0.3-0.1 0.4-0.2 0.1 0 0.2 0 0.3 0 0 0 0.1 0 0.2 0 0.1 0 0.3 0.1 0.4 0.1 0.2 0.3 0.4 0.4 0.5 0.2 0.1 0.4 0.6 0.6 0.6 0.2 0 0.4-0.1 0.5-0.1 0.2 0 0.4 0 0.6-0.1 0.2-0.1 0.1-0.3 0.3-0.5 0.1-0.1 0.3 0 0.4-0.1 0.2-0.1 0.3-0.3 0.4-0.5 0-0.1 0-0.1 0-0.2 0-0.1 0.1-0.2 0.1-0.3 0-0.1-0.1-0.1-0.1-0.2 0-0.1 0-0.2 0-0.3 0-0.2 0-0.4-0.1-0.5-0.4-0.7-1.2-0.9-2-0.8-0.2 0-0.3 0.1-0.4 0.2-0.2 0.1-0.1 0.2-0.3 0.2-0.1 0-0.2 0.1-0.2 0.2C23.5-25.8 23.5-25.8 23.5-25.7 23.5-25.7 23.5-25.7 23.5-25.7M15.8-25.7c0 0.1 0 0.1 0 0.2-0.1 0.1-0.1 0.1-0.2 0.1-0.1 0.1-0.1 0.3-0.1 0.4-0.2 0.1 0 0.2 0 0.3 0 0 0 0.1 0 0.2 0 0.1 0 0.3 0.1 0.4 0.1 0.2 0.3 0.4 0.4 0.5 0.2 0.1 0.4 0.6 0.6 0.6 0.2 0 0.4-0.1 0.5-0.1 0.2 0 0.4 0 0.6-0.1 0.2-0.1 0.1-0.3 0.3-0.5 0.1-0.1 0.3 0 0.4-0.1 0.2-0.1 0.3-0.3 0.4-0.5 0-0.1 0-0.1 0-0.2 0-0.1 0.1-0.2 0.1-0.3 0-0.1-0.1-0.1-0.1-0.2 0-0.1 0-0.2 0-0.3 0-0.2 0-0.4-0.1-0.5-0.4-0.7-1.2-0.9-2-0.8-0.2 0-0.3 0.1-0.4 0.2-0.2 0.1-0.1 0.2-0.3 0.2-0.1 0-0.2 0.1-0.2 0.2C15.8-25.8 15.8-25.8 15.8-25.7 15.8-25.7 15.8-25.7 15.8-25.7M8.2-25.7c0 0.1 0 0.1 0 0.2C8.1-25.4 8-25.5 8-25.4c-0.1 0.1-0.1 0.3-0.1 0.4-0.2 0.1 0 0.2 0 0.3 0 0 0 0.1 0 0.2 0 0.1 0 0.3 0.1 0.4C8-24 8.2-23.8 8.3-23.6c0.2 0.1 0.4 0.6 0.6 0.6 0.2 0 0.4-0.1 0.5-0.1 0.2 0 0.4 0 0.6-0.1 0.2-0.1 0.1-0.3 0.3-0.5 0.1-0.1 0.3 0 0.4-0.1 0.2-0.1 0.3-0.3 0.4-0.5 0-0.1 0-0.1 0-0.2 0-0.1 0.1-0.2 0.1-0.3 0-0.1-0.1-0.1-0.1-0.2 0-0.1 0-0.2 0-0.3 0-0.2 0-0.4-0.1-0.5-0.4-0.7-1.2-0.9-2-0.8-0.2 0-0.3 0.1-0.4 0.2-0.2 0.1-0.1 0.2-0.3 0.2-0.1 0-0.2 0.1-0.2 0.2C8.2-25.8 8.2-25.8 8.2-25.7 8.1-25.7 8.1-25.7 8.2-25.7M0.5-25.7c0 0.1 0 0.1 0 0.2-0.1 0.1-0.1 0.1-0.2 0.1-0.1 0.1-0.1 0.3-0.1 0.4-0.2 0.1 0 0.2 0 0.3 0 0 0 0.1 0 0.2 0 0.1 0 0.3 0.1 0.4 0.1 0.2 0.3 0.4 0.4 0.5C0.9-23.5 1-23.1 1.3-23c0.2 0 0.4-0.1 0.5-0.1 0.2 0 0.4 0 0.6-0.1 0.2-0.1 0.1-0.3 0.3-0.5 0.1-0.1 0.3 0 0.4-0.1 0.2-0.1 0.3-0.3 0.4-0.5 0-0.1 0-0.1 0-0.2 0-0.1 0.1-0.2 0.1-0.3 0-0.1-0.1-0.1-0.1-0.2 0-0.1 0-0.2 0-0.3 0-0.2 0-0.4-0.1-0.5-0.4-0.7-1.2-0.9-2-0.8-0.2 0-0.3 0.1-0.4 0.2-0.2 0.1-0.1 0.2-0.3 0.2-0.1 0-0.2 0.1-0.2 0.2C0.5-25.8 0.5-25.8 0.5-25.7 0.5-25.7 0.5-25.7 0.5-25.7" class="a"/><path d="M69.4-18.1c0 0.1 0 0.1 0 0.2-0.1 0.1-0.1 0.1-0.2 0.1-0.1 0.1-0.1 0.3-0.1 0.4-0.2 0.1 0 0.2 0 0.3 0 0 0 0.1 0 0.2 0 0.1 0 0.3 0.1 0.4 0.1 0.2 0.3 0.4 0.4 0.5 0.2 0.1 0.4 0.6 0.6 0.6 0.2 0 0.4-0.1 0.5-0.1 0.2 0 0.4 0 0.6-0.1 0.2-0.1 0.1-0.3 0.3-0.5 0.1-0.1 0.3 0 0.4-0.1 0.2-0.1 0.3-0.3 0.4-0.5 0-0.1 0-0.1 0-0.2 0-0.1 0.1-0.2 0.1-0.3 0-0.1-0.1-0.1-0.1-0.2 0-0.1 0-0.2 0-0.3 0-0.2 0-0.4-0.1-0.5-0.4-0.7-1.2-0.9-2-0.8-0.2 0-0.3 0.1-0.4 0.2-0.2 0.1-0.1 0.2-0.3 0.2-0.1 0-0.2 0.1-0.2 0.2C69.4-18.1 69.4-18.2 69.4-18.1 69.4-18 69.4-18.1 69.4-18.1M61.8-18.1c0 0.1 0 0.1 0 0.2-0.1 0.1-0.1 0.1-0.2 0.1-0.1 0.1-0.1 0.3-0.1 0.4-0.2 0.1 0 0.2 0 0.3 0 0 0 0.1 0 0.2 0 0.1 0 0.3 0.1 0.4 0.1 0.2 0.3 0.4 0.4 0.5 0.2 0.1 0.4 0.6 0.6 0.6 0.2 0 0.4-0.1 0.5-0.1 0.2 0 0.4 0 0.6-0.1 0.2-0.1 0.1-0.3 0.3-0.5 0.1-0.1 0.3 0 0.4-0.1 0.2-0.1 0.3-0.3 0.4-0.5 0-0.1 0-0.1 0-0.2 0-0.1 0.1-0.2 0.1-0.3 0-0.1-0.1-0.1-0.1-0.2 0-0.1 0-0.2 0-0.3 0-0.2 0-0.4-0.1-0.5-0.4-0.7-1.2-0.9-2-0.8-0.2 0-0.3 0.1-0.4 0.2-0.2 0.1-0.1 0.2-0.3 0.2-0.1 0-0.2 0.1-0.2 0.2C61.8-18.1 61.8-18.2 61.8-18.1 61.8-18 61.8-18.1 61.8-18.1M54.1-18.1c0 0.1 0 0.1 0 0.2-0.1 0.1-0.1 0.1-0.2 0.1-0.1 0.1-0.1 0.3-0.1 0.4-0.2 0.1 0 0.2 0 0.3 0 0 0 0.1 0 0.2 0 0.1 0 0.3 0.1 0.4 0.1 0.2 0.3 0.4 0.4 0.5 0.2 0.1 0.4 0.6 0.6 0.6 0.2 0 0.4-0.1 0.5-0.1 0.2 0 0.4 0 0.6-0.1 0.2-0.1 0.1-0.3 0.3-0.5 0.1-0.1 0.3 0 0.4-0.1 0.2-0.1 0.3-0.3 0.4-0.5 0-0.1 0-0.1 0-0.2 0-0.1 0.1-0.2 0.1-0.3 0-0.1-0.1-0.1-0.1-0.2 0-0.1 0-0.2 0-0.3 0-0.2 0-0.4-0.1-0.5-0.4-0.7-1.2-0.9-2-0.8-0.2 0-0.3 0.1-0.4 0.2-0.2 0.1-0.1 0.2-0.3 0.2-0.1 0-0.2 0.1-0.2 0.2C54.1-18.1 54.1-18.2 54.1-18.1 54.1-18 54.1-18.1 54.1-18.1M46.5-18.1c0 0.1 0 0.1 0 0.2-0.1 0.1-0.1 0.1-0.2 0.1-0.1 0.1-0.1 0.3-0.1 0.4-0.2 0.1 0 0.2 0 0.3 0 0 0 0.1 0 0.2 0 0.1 0 0.3 0.1 0.4 0.1 0.2 0.3 0.4 0.4 0.5 0.2 0.1 0.4 0.6 0.6 0.6 0.2 0 0.4-0.1 0.5-0.1 0.2 0 0.4 0 0.6-0.1 0.2-0.1 0.1-0.3 0.3-0.5 0.1-0.1 0.3 0 0.4-0.1 0.2-0.1 0.3-0.3 0.4-0.5 0-0.1 0-0.1 0-0.2 0-0.1 0.1-0.2 0.1-0.3 0-0.1-0.1-0.1-0.1-0.2 0-0.1 0-0.2 0-0.3 0-0.2 0-0.4-0.1-0.5-0.4-0.7-1.2-0.9-2-0.8-0.2 0-0.3 0.1-0.4 0.2-0.2 0.1-0.1 0.2-0.3 0.2-0.1 0-0.2 0.1-0.2 0.2C46.5-18.1 46.5-18.2 46.5-18.1 46.5-18 46.5-18.1 46.5-18.1M38.8-18.1c0 0.1 0 0.1 0 0.2-0.1 0.1-0.1 0.1-0.2 0.1-0.1 0.1-0.1 0.3-0.1 0.4-0.2 0.1 0 0.2 0 0.3 0 0 0 0.1 0 0.2 0 0.1 0 0.3 0.1 0.4 0.1 0.2 0.3 0.4 0.4 0.5 0.2 0.1 0.4 0.6 0.6 0.6 0.2 0 0.4-0.1 0.5-0.1 0.2 0 0.4 0 0.6-0.1 0.2-0.1 0.1-0.3 0.3-0.5 0.1-0.1 0.3 0 0.4-0.1 0.2-0.1 0.3-0.3 0.4-0.5 0-0.1 0-0.1 0-0.2 0-0.1 0.1-0.2 0.1-0.3 0-0.1-0.1-0.1-0.1-0.2 0-0.1 0-0.2 0-0.3 0-0.2 0-0.4-0.1-0.5-0.4-0.7-1.2-0.9-2-0.8-0.2 0-0.3 0.1-0.4 0.2-0.2 0.1-0.1 0.2-0.3 0.2-0.1 0-0.2 0.1-0.2 0.2C38.8-18.1 38.8-18.2 38.8-18.1 38.8-18 38.8-18.1 38.8-18.1M31.1-18.1c0 0.1 0 0.1 0 0.2-0.1 0.1-0.1 0.1-0.2 0.1-0.1 0.1-0.1 0.3-0.1 0.4-0.2 0.1 0 0.2 0 0.3 0 0 0 0.1 0 0.2 0 0.1 0 0.3 0.1 0.4 0.1 0.2 0.3 0.4 0.4 0.5 0.2 0.1 0.4 0.6 0.6 0.6 0.2 0 0.4-0.1 0.5-0.1 0.2 0 0.4 0 0.6-0.1 0.2-0.1 0.1-0.3 0.3-0.5 0.1-0.1 0.3 0 0.4-0.1 0.2-0.1 0.3-0.3 0.4-0.5 0-0.1 0-0.1 0-0.2 0-0.1 0.1-0.2 0.1-0.3 0-0.1-0.1-0.1-0.1-0.2 0-0.1 0-0.2 0-0.3 0-0.2 0-0.4-0.1-0.5-0.4-0.7-1.2-0.9-2-0.8-0.2 0-0.3 0.1-0.4 0.2-0.2 0.1-0.1 0.2-0.3 0.2-0.1 0-0.2 0.1-0.2 0.2C31.1-18.1 31.1-18.2 31.1-18.1 31.1-18 31.1-18.1 31.1-18.1M23.5-18.1c0 0.1 0 0.1 0 0.2-0.1 0.1-0.1 0.1-0.2 0.1-0.1 0.1-0.1 0.3-0.1 0.4-0.2 0.1 0 0.2 0 0.3 0 0 0 0.1 0 0.2 0 0.1 0 0.3 0.1 0.4 0.1 0.2 0.3 0.4 0.4 0.5 0.2 0.1 0.4 0.6 0.6 0.6 0.2 0 0.4-0.1 0.5-0.1 0.2 0 0.4 0 0.6-0.1 0.2-0.1 0.1-0.3 0.3-0.5 0.1-0.1 0.3 0 0.4-0.1 0.2-0.1 0.3-0.3 0.4-0.5 0-0.1 0-0.1 0-0.2 0-0.1 0.1-0.2 0.1-0.3 0-0.1-0.1-0.1-0.1-0.2 0-0.1 0-0.2 0-0.3 0-0.2 0-0.4-0.1-0.5-0.4-0.7-1.2-0.9-2-0.8-0.2 0-0.3 0.1-0.4 0.2-0.2 0.1-0.1 0.2-0.3 0.2-0.1 0-0.2 0.1-0.2 0.2C23.5-18.1 23.5-18.2 23.5-18.1 23.5-18 23.5-18.1 23.5-18.1M15.8-18.1c0 0.1 0 0.1 0 0.2-0.1 0.1-0.1 0.1-0.2 0.1-0.1 0.1-0.1 0.3-0.1 0.4-0.2 0.1 0 0.2 0 0.3 0 0 0 0.1 0 0.2 0 0.1 0 0.3 0.1 0.4 0.1 0.2 0.3 0.4 0.4 0.5 0.2 0.1 0.4 0.6 0.6 0.6 0.2 0 0.4-0.1 0.5-0.1 0.2 0 0.4 0 0.6-0.1 0.2-0.1 0.1-0.3 0.3-0.5 0.1-0.1 0.3 0 0.4-0.1 0.2-0.1 0.3-0.3 0.4-0.5 0-0.1 0-0.1 0-0.2 0-0.1 0.1-0.2 0.1-0.3 0-0.1-0.1-0.1-0.1-0.2 0-0.1 0-0.2 0-0.3 0-0.2 0-0.4-0.1-0.5-0.4-0.7-1.2-0.9-2-0.8-0.2 0-0.3 0.1-0.4 0.2-0.2 0.1-0.1 0.2-0.3 0.2-0.1 0-0.2 0.1-0.2 0.2C15.8-18.1 15.8-18.2 15.8-18.1 15.8-18 15.8-18.1 15.8-18.1M8.2-18.1c0 0.1 0 0.1 0 0.2C8.1-17.8 8-17.8 8-17.8c-0.1 0.1-0.1 0.3-0.1 0.4-0.2 0.1 0 0.2 0 0.3 0 0 0 0.1 0 0.2 0 0.1 0 0.3 0.1 0.4C8-16.3 8.2-16.1 8.3-16c0.2 0.1 0.4 0.6 0.6 0.6 0.2 0 0.4-0.1 0.5-0.1 0.2 0 0.4 0 0.6-0.1 0.2-0.1 0.1-0.3 0.3-0.5 0.1-0.1 0.3 0 0.4-0.1 0.2-0.1 0.3-0.3 0.4-0.5 0-0.1 0-0.1 0-0.2 0-0.1 0.1-0.2 0.1-0.3 0-0.1-0.1-0.1-0.1-0.2 0-0.1 0-0.2 0-0.3 0-0.2 0-0.4-0.1-0.5-0.4-0.7-1.2-0.9-2-0.8-0.2 0-0.3 0.1-0.4 0.2-0.2 0.1-0.1 0.2-0.3 0.2-0.1 0-0.2 0.1-0.2 0.2C8.2-18.1 8.2-18.2 8.2-18.1 8.1-18 8.1-18.1 8.2-18.1M0.5-18.1c0 0.1 0 0.1 0 0.2-0.1 0.1-0.1 0.1-0.2 0.1-0.1 0.1-0.1 0.3-0.1 0.4-0.2 0.1 0 0.2 0 0.3 0 0 0 0.1 0 0.2 0 0.1 0 0.3 0.1 0.4 0.1 0.2 0.3 0.4 0.4 0.5 0.2 0.1 0.4 0.6 0.6 0.6 0.2 0 0.4-0.1 0.5-0.1 0.2 0 0.4 0 0.6-0.1 0.2-0.1 0.1-0.3 0.3-0.5C2.8-16.1 3-16 3.1-16c0.2-0.1 0.3-0.3 0.4-0.5 0-0.1 0-0.1 0-0.2 0-0.1 0.1-0.2 0.1-0.3 0-0.1-0.1-0.1-0.1-0.2 0-0.1 0-0.2 0-0.3 0-0.2 0-0.4-0.1-0.5-0.4-0.7-1.2-0.9-2-0.8-0.2 0-0.3 0.1-0.4 0.2-0.2 0.1-0.1 0.2-0.3 0.2-0.1 0-0.2 0.1-0.2 0.2C0.5-18.1 0.5-18.2 0.5-18.1 0.5-18 0.5-18.1 0.5-18.1" class="a"/><path d="M69.4-10.4c0 0.1 0 0.1 0 0.2-0.1 0.1-0.1 0.1-0.2 0.1-0.1 0.1-0.1 0.3-0.1 0.4-0.2 0.1 0 0.2 0 0.3 0 0 0 0.1 0 0.2 0 0.1 0 0.3 0.1 0.4 0.1 0.2 0.3 0.4 0.4 0.5 0.2 0.1 0.4 0.6 0.6 0.6 0.2 0 0.4-0.1 0.5-0.1 0.2 0 0.4 0 0.6-0.1 0.2-0.1 0.1-0.3 0.3-0.5 0.1-0.1 0.3 0 0.4-0.1 0.2-0.1 0.3-0.3 0.4-0.5 0-0.1 0-0.1 0-0.2 0-0.1 0.1-0.2 0.1-0.3 0-0.1-0.1-0.1-0.1-0.2 0-0.1 0-0.2 0-0.3 0-0.2 0-0.4-0.1-0.5-0.4-0.7-1.2-0.9-2-0.8-0.2 0-0.3 0.1-0.4 0.2-0.2 0.1-0.1 0.2-0.3 0.2-0.1 0-0.2 0.1-0.2 0.2C69.4-10.5 69.4-10.5 69.4-10.4 69.4-10.4 69.4-10.4 69.4-10.4M61.8-10.4c0 0.1 0 0.1 0 0.2-0.1 0.1-0.1 0.1-0.2 0.1-0.1 0.1-0.1 0.3-0.1 0.4-0.2 0.1 0 0.2 0 0.3 0 0 0 0.1 0 0.2 0 0.1 0 0.3 0.1 0.4 0.1 0.2 0.3 0.4 0.4 0.5 0.2 0.1 0.4 0.6 0.6 0.6 0.2 0 0.4-0.1 0.5-0.1 0.2 0 0.4 0 0.6-0.1C63.9-8 63.8-8.2 64-8.3c0.1-0.1 0.3 0 0.4-0.1 0.2-0.1 0.3-0.3 0.4-0.5 0-0.1 0-0.1 0-0.2 0-0.1 0.1-0.2 0.1-0.3 0-0.1-0.1-0.1-0.1-0.2 0-0.1 0-0.2 0-0.3 0-0.2 0-0.4-0.1-0.5-0.4-0.7-1.2-0.9-2-0.8-0.2 0-0.3 0.1-0.4 0.2-0.2 0.1-0.1 0.2-0.3 0.2-0.1 0-0.2 0.1-0.2 0.2C61.8-10.5 61.8-10.5 61.8-10.4 61.8-10.4 61.8-10.4 61.8-10.4M54.1-10.4c0 0.1 0 0.1 0 0.2-0.1 0.1-0.1 0.1-0.2 0.1-0.1 0.1-0.1 0.3-0.1 0.4-0.2 0.1 0 0.2 0 0.3 0 0 0 0.1 0 0.2 0 0.1 0 0.3 0.1 0.4 0.1 0.2 0.3 0.4 0.4 0.5 0.2 0.1 0.4 0.6 0.6 0.6 0.2 0 0.4-0.1 0.5-0.1 0.2 0 0.4 0 0.6-0.1 0.2-0.1 0.1-0.3 0.3-0.5 0.1-0.1 0.3 0 0.4-0.1 0.2-0.1 0.3-0.3 0.4-0.5 0-0.1 0-0.1 0-0.2 0-0.1 0.1-0.2 0.1-0.3 0-0.1-0.1-0.1-0.1-0.2 0-0.1 0-0.2 0-0.3 0-0.2 0-0.4-0.1-0.5-0.4-0.7-1.2-0.9-2-0.8-0.2 0-0.3 0.1-0.4 0.2-0.2 0.1-0.1 0.2-0.3 0.2-0.1 0-0.2 0.1-0.2 0.2C54.1-10.5 54.1-10.5 54.1-10.4 54.1-10.4 54.1-10.4 54.1-10.4M46.5-10.4c0 0.1 0 0.1 0 0.2-0.1 0.1-0.1 0.1-0.2 0.1-0.1 0.1-0.1 0.3-0.1 0.4-0.2 0.1 0 0.2 0 0.3 0 0 0 0.1 0 0.2 0 0.1 0 0.3 0.1 0.4 0.1 0.2 0.3 0.4 0.4 0.5 0.2 0.1 0.4 0.6 0.6 0.6 0.2 0 0.4-0.1 0.5-0.1 0.2 0 0.4 0 0.6-0.1 0.2-0.1 0.1-0.3 0.3-0.5 0.1-0.1 0.3 0 0.4-0.1 0.2-0.1 0.3-0.3 0.4-0.5 0-0.1 0-0.1 0-0.2 0-0.1 0.1-0.2 0.1-0.3 0-0.1-0.1-0.1-0.1-0.2 0-0.1 0-0.2 0-0.3 0-0.2 0-0.4-0.1-0.5-0.4-0.7-1.2-0.9-2-0.8-0.2 0-0.3 0.1-0.4 0.2-0.2 0.1-0.1 0.2-0.3 0.2-0.1 0-0.2 0.1-0.2 0.2C46.5-10.5 46.5-10.5 46.5-10.4 46.5-10.4 46.5-10.4 46.5-10.4M38.8-10.4c0 0.1 0 0.1 0 0.2-0.1 0.1-0.1 0.1-0.2 0.1-0.1 0.1-0.1 0.3-0.1 0.4-0.2 0.1 0 0.2 0 0.3 0 0 0 0.1 0 0.2 0 0.1 0 0.3 0.1 0.4 0.1 0.2 0.3 0.4 0.4 0.5 0.2 0.1 0.4 0.6 0.6 0.6 0.2 0 0.4-0.1 0.5-0.1 0.2 0 0.4 0 0.6-0.1C40.9-8 40.8-8.2 41-8.3c0.1-0.1 0.3 0 0.4-0.1 0.2-0.1 0.3-0.3 0.4-0.5 0-0.1 0-0.1 0-0.2 0-0.1 0.1-0.2 0.1-0.3 0-0.1-0.1-0.1-0.1-0.2 0-0.1 0-0.2 0-0.3 0-0.2 0-0.4-0.1-0.5-0.4-0.7-1.2-0.9-2-0.8-0.2 0-0.3 0.1-0.4 0.2-0.2 0.1-0.1 0.2-0.3 0.2-0.1 0-0.2 0.1-0.2 0.2C38.8-10.5 38.8-10.5 38.8-10.4 38.8-10.4 38.8-10.4 38.8-10.4M31.1-10.4c0 0.1 0 0.1 0 0.2-0.1 0.1-0.1 0.1-0.2 0.1-0.1 0.1-0.1 0.3-0.1 0.4-0.2 0.1 0 0.2 0 0.3 0 0 0 0.1 0 0.2 0 0.1 0 0.3 0.1 0.4 0.1 0.2 0.3 0.4 0.4 0.5 0.2 0.1 0.4 0.6 0.6 0.6 0.2 0 0.4-0.1 0.5-0.1 0.2 0 0.4 0 0.6-0.1 0.2-0.1 0.1-0.3 0.3-0.5 0.1-0.1 0.3 0 0.4-0.1 0.2-0.1 0.3-0.3 0.4-0.5 0-0.1 0-0.1 0-0.2 0-0.1 0.1-0.2 0.1-0.3 0-0.1-0.1-0.1-0.1-0.2 0-0.1 0-0.2 0-0.3 0-0.2 0-0.4-0.1-0.5-0.4-0.7-1.2-0.9-2-0.8-0.2 0-0.3 0.1-0.4 0.2-0.2 0.1-0.1 0.2-0.3 0.2-0.1 0-0.2 0.1-0.2 0.2C31.1-10.5 31.1-10.5 31.1-10.4 31.1-10.4 31.1-10.4 31.1-10.4M23.5-10.4c0 0.1 0 0.1 0 0.2-0.1 0.1-0.1 0.1-0.2 0.1-0.1 0.1-0.1 0.3-0.1 0.4-0.2 0.1 0 0.2 0 0.3 0 0 0 0.1 0 0.2 0 0.1 0 0.3 0.1 0.4 0.1 0.2 0.3 0.4 0.4 0.5 0.2 0.1 0.4 0.6 0.6 0.6 0.2 0 0.4-0.1 0.5-0.1 0.2 0 0.4 0 0.6-0.1 0.2-0.1 0.1-0.3 0.3-0.5 0.1-0.1 0.3 0 0.4-0.1 0.2-0.1 0.3-0.3 0.4-0.5 0-0.1 0-0.1 0-0.2 0-0.1 0.1-0.2 0.1-0.3 0-0.1-0.1-0.1-0.1-0.2 0-0.1 0-0.2 0-0.3 0-0.2 0-0.4-0.1-0.5-0.4-0.7-1.2-0.9-2-0.8-0.2 0-0.3 0.1-0.4 0.2-0.2 0.1-0.1 0.2-0.3 0.2-0.1 0-0.2 0.1-0.2 0.2C23.5-10.5 23.5-10.5 23.5-10.4 23.5-10.4 23.5-10.4 23.5-10.4M15.8-10.4c0 0.1 0 0.1 0 0.2-0.1 0.1-0.1 0.1-0.2 0.1-0.1 0.1-0.1 0.3-0.1 0.4-0.2 0.1 0 0.2 0 0.3 0 0 0 0.1 0 0.2 0 0.1 0 0.3 0.1 0.4 0.1 0.2 0.3 0.4 0.4 0.5 0.2 0.1 0.4 0.6 0.6 0.6 0.2 0 0.4-0.1 0.5-0.1 0.2 0 0.4 0 0.6-0.1C17.9-8 17.8-8.2 18-8.3c0.1-0.1 0.3 0 0.4-0.1 0.2-0.1 0.3-0.3 0.4-0.5 0-0.1 0-0.1 0-0.2 0-0.1 0.1-0.2 0.1-0.3 0-0.1-0.1-0.1-0.1-0.2 0-0.1 0-0.2 0-0.3 0-0.2 0-0.4-0.1-0.5-0.4-0.7-1.2-0.9-2-0.8-0.2 0-0.3 0.1-0.4 0.2-0.2 0.1-0.1 0.2-0.3 0.2-0.1 0-0.2 0.1-0.2 0.2C15.8-10.5 15.8-10.5 15.8-10.4 15.8-10.4 15.8-10.4 15.8-10.4M8.2-10.4c0 0.1 0 0.1 0 0.2C8.1-10.1 8-10.2 8-10.1 7.9-10 7.9-9.8 7.9-9.8c-0.2 0.1 0 0.2 0 0.3 0 0 0 0.1 0 0.2 0 0.1 0 0.3 0.1 0.4C8-8.7 8.2-8.5 8.3-8.3c0.2 0.1 0.4 0.6 0.6 0.6 0.2 0 0.4-0.1 0.5-0.1 0.2 0 0.4 0 0.6-0.1 0.2-0.1 0.1-0.3 0.3-0.5 0.1-0.1 0.3 0 0.4-0.1 0.2-0.1 0.3-0.3 0.4-0.5 0-0.1 0-0.1 0-0.2 0-0.1 0.1-0.2 0.1-0.3 0-0.1-0.1-0.1-0.1-0.2 0-0.1 0-0.2 0-0.3 0-0.2 0-0.4-0.1-0.5-0.4-0.7-1.2-0.9-2-0.8-0.2 0-0.3 0.1-0.4 0.2-0.2 0.1-0.1 0.2-0.3 0.2-0.1 0-0.2 0.1-0.2 0.2C8.2-10.5 8.2-10.5 8.2-10.4 8.1-10.4 8.1-10.4 8.2-10.4M0.5-10.4c0 0.1 0 0.1 0 0.2-0.1 0.1-0.1 0.1-0.2 0.1C0.3-10 0.2-9.8 0.2-9.8c-0.2 0.1 0 0.2 0 0.3 0 0 0 0.1 0 0.2 0 0.1 0 0.3 0.1 0.4 0.1 0.2 0.3 0.4 0.4 0.5C0.9-8.2 1-7.8 1.3-7.7c0.2 0 0.4-0.1 0.5-0.1 0.2 0 0.4 0 0.6-0.1C2.6-8 2.5-8.2 2.7-8.3c0.1-0.1 0.3 0 0.4-0.1 0.2-0.1 0.3-0.3 0.4-0.5 0-0.1 0-0.1 0-0.2 0-0.1 0.1-0.2 0.1-0.3 0-0.1-0.1-0.1-0.1-0.2 0-0.1 0-0.2 0-0.3 0-0.2 0-0.4-0.1-0.5-0.4-0.7-1.2-0.9-2-0.8-0.2 0-0.3 0.1-0.4 0.2-0.2 0.1-0.1 0.2-0.3 0.2-0.1 0-0.2 0.1-0.2 0.2C0.5-10.5 0.5-10.5 0.5-10.4 0.5-10.4 0.5-10.4 0.5-10.4" class="a"/><path d="M69.4-2.8c0 0.1 0 0.1 0 0.2-0.1 0.1-0.1 0.1-0.2 0.1-0.1 0.1-0.1 0.3-0.1 0.4-0.2 0.1 0 0.2 0 0.3 0 0 0 0.1 0 0.2 0 0.1 0 0.3 0.1 0.4 0.1 0.2 0.3 0.4 0.4 0.5C69.8-0.5 70-0.1 70.2 0c0.2 0 0.4-0.1 0.5-0.1 0.2 0 0.4 0 0.6-0.1 0.2-0.1 0.1-0.3 0.3-0.5 0.1-0.1 0.3 0 0.4-0.1 0.2-0.1 0.3-0.3 0.4-0.5 0-0.1 0-0.1 0-0.2 0-0.1 0.1-0.2 0.1-0.3 0-0.1-0.1-0.1-0.1-0.2 0-0.1 0-0.2 0-0.3 0-0.2 0-0.4-0.1-0.5-0.4-0.7-1.2-0.9-2-0.8-0.2 0-0.3 0.1-0.4 0.2-0.2 0.1-0.1 0.2-0.3 0.2-0.1 0-0.2 0.1-0.2 0.2C69.4-2.8 69.4-2.9 69.4-2.8 69.4-2.7 69.4-2.8 69.4-2.8M61.8-2.8c0 0.1 0 0.1 0 0.2-0.1 0.1-0.1 0.1-0.2 0.1-0.1 0.1-0.1 0.3-0.1 0.4-0.2 0.1 0 0.2 0 0.3 0 0 0 0.1 0 0.2 0 0.1 0 0.3 0.1 0.4C61.6-1 61.8-0.8 62-0.7c0.2 0.1 0.4 0.6 0.6 0.6 0.2 0 0.4-0.1 0.5-0.1 0.2 0 0.4 0 0.6-0.1 0.2-0.1 0.1-0.3 0.3-0.5 0.1-0.1 0.3 0 0.4-0.1 0.2-0.1 0.3-0.3 0.4-0.5 0-0.1 0-0.1 0-0.2 0-0.1 0.1-0.2 0.1-0.3 0-0.1-0.1-0.1-0.1-0.2 0-0.1 0-0.2 0-0.3 0-0.2 0-0.4-0.1-0.5-0.4-0.7-1.2-0.9-2-0.8-0.2 0-0.3 0.1-0.4 0.2-0.2 0.1-0.1 0.2-0.3 0.2-0.1 0-0.2 0.1-0.2 0.2C61.8-2.8 61.8-2.9 61.8-2.8 61.8-2.7 61.8-2.8 61.8-2.8M54.1-2.8c0 0.1 0 0.1 0 0.2C54-2.5 54-2.5 53.9-2.5c-0.1 0.1-0.1 0.3-0.1 0.4-0.2 0.1 0 0.2 0 0.3 0 0 0 0.1 0 0.2 0 0.1 0 0.3 0.1 0.4C54-1 54.1-0.8 54.3-0.7c0.2 0.1 0.4 0.6 0.6 0.6 0.2 0 0.4-0.1 0.5-0.1 0.2 0 0.4 0 0.6-0.1 0.2-0.1 0.1-0.3 0.3-0.5 0.1-0.1 0.3 0 0.4-0.1C56.9-0.8 57-1 57.1-1.2c0-0.1 0-0.1 0-0.2 0-0.1 0.1-0.2 0.1-0.3 0-0.1-0.1-0.1-0.1-0.2 0-0.1 0-0.2 0-0.3 0-0.2 0-0.4-0.1-0.5-0.4-0.7-1.2-0.9-2-0.8-0.2 0-0.3 0.1-0.4 0.2-0.2 0.1-0.1 0.2-0.3 0.2-0.1 0-0.2 0.1-0.2 0.2C54.1-2.8 54.1-2.9 54.1-2.8 54.1-2.7 54.1-2.8 54.1-2.8M46.5-2.8c0 0.1 0 0.1 0 0.2-0.1 0.1-0.1 0.1-0.2 0.1-0.1 0.1-0.1 0.3-0.1 0.4-0.2 0.1 0 0.2 0 0.3 0 0 0 0.1 0 0.2 0 0.1 0 0.3 0.1 0.4 0.1 0.2 0.3 0.4 0.4 0.5C46.8-0.5 47-0.1 47.2 0c0.2 0 0.4-0.1 0.5-0.1 0.2 0 0.4 0 0.6-0.1 0.2-0.1 0.1-0.3 0.3-0.5 0.1-0.1 0.3 0 0.4-0.1 0.2-0.1 0.3-0.3 0.4-0.5 0-0.1 0-0.1 0-0.2 0-0.1 0.1-0.2 0.1-0.3 0-0.1-0.1-0.1-0.1-0.2 0-0.1 0-0.2 0-0.3 0-0.2 0-0.4-0.1-0.5-0.4-0.7-1.2-0.9-2-0.8-0.2 0-0.3 0.1-0.4 0.2-0.2 0.1-0.1 0.2-0.3 0.2-0.1 0-0.2 0.1-0.2 0.2C46.5-2.8 46.5-2.9 46.5-2.8 46.5-2.7 46.5-2.8 46.5-2.8M38.8-2.8c0 0.1 0 0.1 0 0.2-0.1 0.1-0.1 0.1-0.2 0.1-0.1 0.1-0.1 0.3-0.1 0.4-0.2 0.1 0 0.2 0 0.3 0 0 0 0.1 0 0.2 0 0.1 0 0.3 0.1 0.4C38.6-1 38.8-0.8 39-0.7c0.2 0.1 0.4 0.6 0.6 0.6 0.2 0 0.4-0.1 0.5-0.1 0.2 0 0.4 0 0.6-0.1 0.2-0.1 0.1-0.3 0.3-0.5 0.1-0.1 0.3 0 0.4-0.1 0.2-0.1 0.3-0.3 0.4-0.5 0-0.1 0-0.1 0-0.2 0-0.1 0.1-0.2 0.1-0.3 0-0.1-0.1-0.1-0.1-0.2 0-0.1 0-0.2 0-0.3 0-0.2 0-0.4-0.1-0.5-0.4-0.7-1.2-0.9-2-0.8-0.2 0-0.3 0.1-0.4 0.2-0.2 0.1-0.1 0.2-0.3 0.2-0.1 0-0.2 0.1-0.2 0.2C38.8-2.8 38.8-2.9 38.8-2.8 38.8-2.7 38.8-2.8 38.8-2.8M31.1-2.8c0 0.1 0 0.1 0 0.2-0.1 0.1-0.1 0.1-0.2 0.1-0.1 0.1-0.1 0.3-0.1 0.4-0.2 0.1 0 0.2 0 0.3 0 0 0 0.1 0 0.2 0 0.1 0 0.3 0.1 0.4C31-1 31.1-0.8 31.3-0.7c0.2 0.1 0.4 0.6 0.6 0.6 0.2 0 0.4-0.1 0.5-0.1 0.2 0 0.4 0 0.6-0.1 0.2-0.1 0.1-0.3 0.3-0.5 0.1-0.1 0.3 0 0.4-0.1 0.2-0.1 0.3-0.3 0.4-0.5 0-0.1 0-0.1 0-0.2 0-0.1 0.1-0.2 0.1-0.3 0-0.1-0.1-0.1-0.1-0.2 0-0.1 0-0.2 0-0.3 0-0.2 0-0.4-0.1-0.5-0.4-0.7-1.2-0.9-2-0.8-0.2 0-0.3 0.1-0.4 0.2-0.2 0.1-0.1 0.2-0.3 0.2-0.1 0-0.2 0.1-0.2 0.2C31.1-2.8 31.1-2.9 31.1-2.8 31.1-2.7 31.1-2.8 31.1-2.8M23.5-2.8c0 0.1 0 0.1 0 0.2-0.1 0.1-0.1 0.1-0.2 0.1-0.1 0.1-0.1 0.3-0.1 0.4-0.2 0.1 0 0.2 0 0.3 0 0 0 0.1 0 0.2 0 0.1 0 0.3 0.1 0.4 0.1 0.2 0.3 0.4 0.4 0.5C23.8-0.5 24-0.1 24.3 0c0.2 0 0.4-0.1 0.5-0.1 0.2 0 0.4 0 0.6-0.1 0.2-0.1 0.1-0.3 0.3-0.5 0.1-0.1 0.3 0 0.4-0.1 0.2-0.1 0.3-0.3 0.4-0.5 0-0.1 0-0.1 0-0.2 0-0.1 0.1-0.2 0.1-0.3 0-0.1-0.1-0.1-0.1-0.2 0-0.1 0-0.2 0-0.3 0-0.2 0-0.4-0.1-0.5-0.4-0.7-1.2-0.9-2-0.8-0.2 0-0.3 0.1-0.4 0.2-0.2 0.1-0.1 0.2-0.3 0.2-0.1 0-0.2 0.1-0.2 0.2C23.5-2.8 23.5-2.9 23.5-2.8 23.5-2.7 23.5-2.8 23.5-2.8M15.8-2.8c0 0.1 0 0.1 0 0.2-0.1 0.1-0.1 0.1-0.2 0.1-0.1 0.1-0.1 0.3-0.1 0.4-0.2 0.1 0 0.2 0 0.3 0 0 0 0.1 0 0.2 0 0.1 0 0.3 0.1 0.4C15.7-1 15.8-0.8 16-0.7c0.2 0.1 0.4 0.6 0.6 0.6 0.2 0 0.4-0.1 0.5-0.1 0.2 0 0.4 0 0.6-0.1 0.2-0.1 0.1-0.3 0.3-0.5 0.1-0.1 0.3 0 0.4-0.1 0.2-0.1 0.3-0.3 0.4-0.5 0-0.1 0-0.1 0-0.2 0-0.1 0.1-0.2 0.1-0.3 0-0.1-0.1-0.1-0.1-0.2 0-0.1 0-0.2 0-0.3 0-0.2 0-0.4-0.1-0.5-0.4-0.7-1.2-0.9-2-0.8-0.2 0-0.3 0.1-0.4 0.2-0.2 0.1-0.1 0.2-0.3 0.2-0.1 0-0.2 0.1-0.2 0.2C15.8-2.8 15.8-2.9 15.8-2.8 15.8-2.7 15.8-2.8 15.8-2.8M8.2-2.8c0 0.1 0 0.1 0 0.2C8.1-2.5 8-2.5 8-2.5 7.9-2.4 7.9-2.2 7.9-2.1c-0.2 0.1 0 0.2 0 0.3 0 0 0 0.1 0 0.2 0 0.1 0 0.3 0.1 0.4C8-1 8.2-0.8 8.3-0.7 8.5-0.5 8.7-0.1 8.9 0c0.2 0 0.4-0.1 0.5-0.1 0.2 0 0.4 0 0.6-0.1 0.2-0.1 0.1-0.3 0.3-0.5 0.1-0.1 0.3 0 0.4-0.1 0.2-0.1 0.3-0.3 0.4-0.5 0-0.1 0-0.1 0-0.2 0-0.1 0.1-0.2 0.1-0.3 0-0.1-0.1-0.1-0.1-0.2 0-0.1 0-0.2 0-0.3 0-0.2 0-0.4-0.1-0.5-0.4-0.7-1.2-0.9-2-0.8C9-3.5 8.8-3.4 8.7-3.4 8.5-3.3 8.6-3.2 8.4-3.1 8.3-3.1 8.2-3 8.2-2.9 8.2-2.8 8.2-2.9 8.2-2.8 8.1-2.7 8.1-2.8 8.2-2.8M0.5-2.8c0 0.1 0 0.1 0 0.2C0.4-2.5 0.4-2.5 0.3-2.5 0.3-2.4 0.2-2.2 0.2-2.1c-0.2 0.1 0 0.2 0 0.3 0 0 0 0.1 0 0.2 0 0.1 0 0.3 0.1 0.4C0.3-1 0.5-0.8 0.7-0.7 0.9-0.5 1-0.1 1.3 0c0.2 0 0.4-0.1 0.5-0.1 0.2 0 0.4 0 0.6-0.1 0.2-0.1 0.1-0.3 0.3-0.5 0.1-0.1 0.3 0 0.4-0.1C3.3-0.8 3.4-1 3.5-1.2c0-0.1 0-0.1 0-0.2 0-0.1 0.1-0.2 0.1-0.3 0-0.1-0.1-0.1-0.1-0.2 0-0.1 0-0.2 0-0.3 0-0.2 0-0.4-0.1-0.5-0.4-0.7-1.2-0.9-2-0.8C1.3-3.5 1.2-3.4 1-3.4 0.9-3.3 0.9-3.2 0.7-3.1 0.6-3.1 0.5-3 0.5-2.9 0.5-2.8 0.5-2.9 0.5-2.8 0.5-2.7 0.5-2.8 0.5-2.8" class="a"/></pattern><path d="M10.9 0.7h12.4c1.3 0 2.5-0.2 3.6-0.5C27.4 0.1 27.8 0 28.2 0c1.3 0 2.5 0.9 3.7 2.8s1.8 3.8 1.8 5.8c0 1.4-0.4 2.4-1.2 3-0.6 0.5-1.4 0.7-2.3 0.7-0.8 0-1.5-0.2-2.2-0.7-0.6-0.5-1.2-1.2-1.8-2.3-0.5-1-0.9-1.6-1.2-1.9C24.7 7.1 24.3 7 23.9 7c-0.6 0-1 0.2-1.2 0.7-0.3 0.5-0.4 1.3-0.4 2.4v13.1c0 1.3 0.1 2.3 0.4 2.9 0.3 0.6 0.8 1.1 1.6 1.4 0.8 0.4 1.4 0.7 1.7 1 0.3 0.3 0.5 0.8 0.5 1.3 0 1.1-0.8 2-2.3 2.5-1.5 0.5-3.9 0.8-7 0.8-3.9 0-6.8-0.3-8.6-1-1.6-0.5-2.4-1.4-2.4-2.6 0-0.6 0.3-1.1 0.8-1.5 0.1-0.1 0.7-0.3 1.7-0.6 0.6-0.2 1-0.5 1.2-1 0.2-0.5 0.4-1.4 0.6-2.8 0.1-1.2 0.2-3.2 0.4-5.9 0.1-2.7 0.2-5.1 0.2-7.1 0-1.4-0.1-2.4-0.3-3-0.2-0.6-0.6-0.9-1.1-0.9C9 6.9 8.4 7.4 7.8 8.3c-1 1.6-1.9 2.6-2.6 3.2-0.8 0.6-1.6 0.9-2.3 0.9-0.8 0-1.5-0.3-2.1-0.9C0.3 10.7 0 9.9 0 9c0-1 0.2-2 0.7-3.2 0.4-1.2 1-2.2 1.8-3.2 1.2-1.6 2.4-2.4 3.5-2.4 0.3 0 0.7 0 1.1 0.1 0.8 0.2 1.5 0.3 2.1 0.4C9.6 0.7 10.2 0.7 10.9 0.7zM47.5 1.9l-0.3 9.8c0 1.2 0.3 1.8 1.1 1.8 0.4 0 0.7-0.3 1.1-0.8 1.5-2.2 3.5-3.3 6.1-3.3 2.5 0 4.5 0.8 5.9 2.3 0.7 0.7 1.1 1.5 1.4 2.4 0.3 0.9 0.4 2.2 0.5 4l0.2 8.5c0 0.7 0.1 1.3 0.3 1.6 0.2 0.3 0.6 0.8 1.3 1.3 0.5 0.4 0.7 0.8 0.7 1.3 0 1.7-2.5 2.5-7.6 2.5-4.5 0-6.8-0.8-6.8-2.4 0-0.3 0-0.5 0.1-0.6 0.1-0.1 0.4-0.5 0.8-1.1 0.7-0.9 1-3 1-6.4 0-2.1-0.2-3.6-0.6-4.5-0.5-1.3-1.4-1.9-2.8-1.9-1 0-1.7 0.3-2.1 1-0.3 0.5-0.5 1.4-0.5 2.8v4.5c0.1 2 0.2 3.1 0.3 3.4 0.1 0.3 0.4 0.8 1.1 1.5 0.3 0.3 0.4 0.7 0.4 1.1 0 1.8-2.3 2.6-6.9 2.6-5.4 0-8.1-0.9-8.1-2.7 0-0.4 0.1-0.7 0.3-1 0.2-0.2 0.6-0.6 1.3-1 0.6-0.4 1-1.6 1.2-3.4 0.2-1.9 0.3-4.9 0.3-9.2 0-3.4-0.1-5.7-0.3-7-0.1-0.5-0.2-0.8-0.3-1.1-0.2-0.2-0.5-0.5-0.9-0.7-1-0.5-1.5-1.1-1.5-1.7 0-0.8 0.4-1.4 1.1-1.9 0.7-0.5 2.1-1 4.2-1.6 2.8-0.8 5.1-1.2 6.7-1.2C47.1 0.7 47.6 1.1 47.5 1.9zM86.3 22.1h-11c-0.5 0-0.7 0.2-0.7 0.6 0 1 0.6 2 1.7 2.9 1.1 0.9 2.3 1.3 3.6 1.3 0.8 0 1.6-0.1 2.5-0.4 0.9-0.3 1.7-0.6 2.3-1.1 0.5-0.4 1-0.6 1.3-0.6 0.4 0 0.8 0.3 1.2 0.8 0.4 0.5 0.6 1 0.6 1.5 0 1.1-0.7 2.2-2.1 3.3-2.5 1.9-5.4 2.8-8.6 2.8-3.3 0-6-1-8.3-2.9-1.1-0.9-2-2.1-2.7-3.4-0.9-1.8-1.4-3.6-1.4-5.6 0-2.6 0.8-5 2.4-7.1 1.4-1.8 3.1-3.2 5.3-4.1 1.6-0.7 3.3-1 5.2-1 3 0 5.5 0.8 7.6 2.5 1 0.8 1.9 1.8 2.5 3 0.7 1.3 1.1 2.6 1.1 3.8 0 1-0.2 1.8-0.6 2.5C87.6 21.7 87 22.1 86.3 22.1zM75.9 17.7h2.4c1 0 1.5-0.5 1.5-1.4 0-0.8-0.2-1.5-0.7-2.1-0.5-0.5-1.1-0.8-1.9-0.8-0.9 0-1.6 0.3-2.1 1-0.5 0.6-0.7 1.3-0.7 1.9 0 0.5 0.1 0.8 0.3 1C75 17.6 75.4 17.7 75.9 17.7zM134 7.1l-2.5 2.4c-0.9 0.9-1.4 1.7-1.4 2.4 0 0.4 0.1 0.8 0.3 1.2 0.2 0.4 0.6 0.9 1.2 1.6l8.8 10.1c0.8 0.9 1.3 1.5 1.6 1.7s0.7 0.5 1.3 0.8c0.8 0.4 1.4 0.8 1.8 1.2 0.4 0.4 0.5 1 0.5 1.7 0 1.7-1.2 2.5-3.5 2.5h-8.9c-0.6 0-1.1-0.1-1.4-0.4-0.4-0.3-0.9-0.9-1.7-2-1.2-1.7-2.8-3.6-4.8-5.8-0.9-0.9-1.5-1.6-1.8-1.8-0.4-0.3-0.7-0.4-1-0.4-0.9 0-1.4 0.9-1.4 2.6 0 1.4 0.3 2.4 0.9 2.9 0.1 0.1 0.4 0.3 0.8 0.5 0.8 0.5 1.3 1.2 1.3 2 0 1-0.7 1.8-2.1 2.2-1.4 0.4-3.7 0.7-6.9 0.7-2.9 0-5-0.2-6.3-0.5-0.6-0.2-1-0.4-1.4-0.9-0.4-0.4-0.5-0.9-0.5-1.4 0-0.8 0.5-1.5 1.4-2.1 0.4-0.3 0.7-0.6 0.9-0.9s0.3-0.9 0.5-1.7c0.3-1.8 0.5-4.5 0.5-8.2 0-4.4-0.2-7.5-0.5-9.3-0.1-0.7-0.3-1.3-0.5-1.6-0.2-0.3-0.6-0.6-1.1-1-0.9-0.5-1.3-1.2-1.3-2.1 0-0.8 0.3-1.4 0.8-1.8 0.5-0.5 1.4-0.8 2.6-1 1.6-0.3 3.6-0.5 6-0.5 2.5 0 4.3 0.2 5.5 0.7 1.1 0.4 1.6 1.2 1.6 2.3 0 0.5-0.1 0.8-0.2 1.1-0.2 0.3-0.6 0.7-1.3 1.2-0.3 0.2-0.5 0.7-0.7 1.6-0.2 0.8-0.3 1.6-0.3 2.4 0 1.3 0.3 2 0.9 2 0.4 0 0.7-0.2 1-0.5 0.3-0.3 1-1.1 2-2.3 1.2-1.5 1.8-2.4 1.8-3 0-0.3-0.1-0.7-0.4-1.3-0.2-0.4-0.3-0.8-0.3-1.1 0-1.2 0.6-2 1.9-2.4 1.3-0.5 3.4-0.7 6.4-0.7 2.4 0 4.2 0.2 5.3 0.5 1.4 0.4 2.1 1.2 2.1 2.5 0 0.5-0.1 1-0.4 1.4-0.3 0.4-0.7 0.7-1.1 0.8-0.3 0.1-1.1 0.2-2.3 0.2-0.8 0-1.4 0.1-1.9 0.3C135.2 6.1 134.6 6.5 134 7.1zM211.3 9.3c1 0 1.5 0.1 1.8 0.2 0.2 0.2 0.4 0.6 0.4 1.2 0 0.6 0.2 0.9 0.6 0.9 0.2 0 0.7-0.3 1.6-0.9 0.7-0.5 1.5-0.8 2.6-1.1 1-0.3 2-0.5 2.8-0.5 2 0 3.8 0.7 5.3 2.1 1.2 1 2.1 2.4 2.8 4 0.7 1.7 1 3.4 1 5.3 0 3.9-1.3 7.2-4 9.7-2 2-4.4 3-7 3-1.3 0-2.7-0.3-4.1-0.9-0.3-0.1-0.5-0.2-0.7-0.2-0.5 0-0.7 0.5-0.7 1.4 0 1.2 0.4 2.1 1.2 2.7 0.8 0.5 1.2 0.9 1.4 1 0.1 0.2 0.2 0.5 0.2 0.9 0 0.9-0.5 1.7-1.6 2.2-1 0.5-2.5 0.8-4.4 0.8-3.4 0-6.4-0.7-8.9-2-1.3-0.7-1.9-1.5-1.9-2.6 0-0.5 0.1-0.8 0.3-1.1 0.2-0.2 0.6-0.5 1.1-0.8 0.8-0.4 1.3-1.1 1.5-2 0.2-1 0.3-3.8 0.4-8.5-0.1-3.8-0.3-6-0.4-6.5-0.1-0.2-0.2-0.3-0.3-0.3s-0.5-0.1-1.2-0.3c-0.5-0.1-0.9-0.3-1.2-0.7-0.3-0.4-0.5-0.8-0.5-1.3 0-0.6 0.2-1.2 0.7-1.7 0.4-0.5 1.1-0.9 2.1-1.4C206 10.2 209 9.4 211.3 9.3zM213.6 18.2l-0.4 6.4c0 0.3 0 0.5 0 0.8 0 0.5 0.2 0.9 0.6 1.2 0.4 0.3 1 0.4 1.7 0.4 2.2 0 3.2-1.8 3.2-5.3 0-2.3-0.5-3.9-1.4-4.9-0.6-0.6-1.2-0.9-2-0.9C214.3 16 213.7 16.7 213.6 18.2zM242.2 14.1v7.5c0 3.3 0.1 5.3 0.2 5.8 0.1 0.5 0.5 1 1.2 1.3 0.6 0.3 1 0.5 1.2 0.7 0.2 0.2 0.3 0.5 0.3 0.9 0 0.5-0.2 1-0.6 1.4-0.4 0.4-0.9 0.7-1.5 0.9-1.1 0.3-3 0.5-5.7 0.5-3 0-5.1-0.2-6.4-0.7-0.6-0.2-1-0.5-1.4-0.9-0.4-0.4-0.5-0.9-0.5-1.3 0-0.4 0.1-0.7 0.3-0.9s0.6-0.4 1.3-0.7c0.6-0.3 1-1 1.1-2.2 0.3-2 0.4-4.9 0.4-8.7 0-3.8-0.1-6.3-0.3-7.4-0.2-1.1-0.8-1.9-1.6-2.4-0.7-0.4-1.1-0.7-1.3-1.1-0.2-0.3-0.4-0.7-0.4-1.2 0-0.8 0.4-1.4 1.1-2s1.9-1.1 3.5-1.6c1.1-0.3 2.5-0.6 4.2-0.9 1.7-0.3 3-0.4 3.8-0.4 1.2 0 1.9 0.8 1.9 2.3 0 0.5-0.1 1.6-0.2 3.4C242.4 9.2 242.3 11.8 242.2 14.1zM265.4 22.1h-11c-0.5 0-0.7 0.2-0.7 0.6 0 1 0.6 2 1.7 2.9 1.1 0.9 2.3 1.3 3.6 1.3 0.8 0 1.6-0.1 2.5-0.4 0.9-0.3 1.7-0.6 2.3-1.1 0.5-0.4 1-0.6 1.3-0.6 0.4 0 0.8 0.3 1.2 0.8s0.6 1 0.6 1.5c0 1.1-0.7 2.2-2.1 3.3-2.5 1.9-5.4 2.8-8.6 2.8-3.3 0-6-1-8.3-2.9-1.1-0.9-2-2.1-2.7-3.4-0.9-1.8-1.4-3.6-1.4-5.6 0-2.6 0.8-5 2.4-7.1 1.4-1.8 3.1-3.2 5.3-4.1 1.6-0.7 3.3-1 5.2-1 3 0 5.5 0.8 7.6 2.5 1 0.8 1.9 1.8 2.5 3 0.7 1.3 1.1 2.6 1.1 3.8 0 1-0.2 1.8-0.6 2.5C266.7 21.7 266.1 22.1 265.4 22.1zM255 17.7h2.4c1 0 1.5-0.5 1.5-1.4 0-0.8-0.2-1.5-0.7-2.1-0.5-0.5-1.1-0.8-1.9-0.8-0.9 0-1.6 0.3-2.1 1-0.5 0.6-0.7 1.3-0.7 1.9 0 0.5 0.1 0.8 0.3 1C254.1 17.6 254.5 17.7 255 17.7zM277.1 9.2c0.8 0 2.1 0.2 3.8 0.5 0.4 0.1 0.7 0.1 0.9 0.1 0.3 0 0.8-0.1 1.5-0.4 0.4-0.1 0.7-0.2 0.9-0.2 0.7 0 1.4 0.5 2.2 1.4 0.6 0.7 1.1 1.5 1.5 2.4s0.6 1.6 0.6 2.3c0 0.6-0.2 1.1-0.7 1.6-0.4 0.4-1 0.6-1.6 0.6-0.5 0-1-0.1-1.5-0.4-0.4-0.3-1.1-0.9-2.1-1.8-1-1-1.8-1.5-2.5-1.5-0.4 0-0.8 0.2-1.1 0.5-0.3 0.3-0.5 0.7-0.5 1.1 0 0.8 0.7 1.5 2.2 2.2 2.6 1.2 4.7 2.5 6.1 3.9 1.2 1.2 1.8 2.6 1.8 4.4 0 2.2-1 4-2.9 5.4-1.6 1.3-3.6 1.9-6 1.9-0.6 0-1.7-0.1-3.3-0.3-1.5-0.2-2.4-0.3-2.6-0.3-0.2 0-0.4 0-0.7 0.1-0.5 0.1-0.8 0.1-1 0.1-0.7 0-1.3-0.2-1.7-0.6-0.6-0.6-1.2-1.5-1.8-2.7-0.5-1.2-0.8-2.3-0.8-3.2 0-1.4 0.6-2.2 1.7-2.2 0.4 0 0.8 0.1 1.2 0.4 0.4 0.3 1.1 1.1 2.3 2.3 0.6 0.7 1.2 1.2 1.6 1.4 0.4 0.3 0.9 0.4 1.4 0.4 0.5 0 0.9-0.1 1.2-0.4 0.3-0.3 0.5-0.6 0.5-1.1 0-0.7-0.6-1.3-1.8-1.9-2.5-1.2-4.3-2.5-5.4-3.8-1.1-1.3-1.7-2.8-1.7-4.5 0-1.9 0.6-3.5 1.7-4.8C272.1 10.2 274.3 9.2 277.1 9.2z"/><path d="M161.1 9.8c2.8 0.6 5.1 1.8 6.9 3.7 1.3 1.3 2.3 2.9 2.8 4.8 0.6 1.9 0.7 3.9 0.3 5.8-0.7 3.3-2.8 5.8-6.3 7.6-3.4 1.6-6.9 2.1-10.7 1.3-3.7-0.7-6.4-2.4-8.3-4.9-1.8-2.5-2.4-5.3-1.7-8.6 0.7-3.6 2.7-6.3 5.8-8.1C153.4 9.5 157.1 9 161.1 9.8zM158.2 14.7c-0.7-0.1-1.3 0-1.8 0.4-0.5 0.4-0.8 1-1 1.9-0.2 0.9-0.3 2.2-0.2 3.9 0 1.7 0.2 3.1 0.4 4.5 0.2 1.4 0.9 2.1 1.9 2.4 1.4 0.3 2.2-0.5 2.6-2.2 0.3-1.3 0.4-2.8 0.4-4.5 0-1.7-0.2-3.1-0.4-4.3C159.7 15.6 159.1 14.9 158.2 14.7z"/><path d="M189.6 9.8c2.8 0.6 5.1 1.8 6.9 3.7 1.3 1.3 2.3 2.9 2.8 4.8 0.6 1.9 0.7 3.9 0.3 5.8-0.7 3.3-2.8 5.8-6.3 7.6-3.4 1.6-6.9 2.1-10.7 1.3-3.7-0.7-6.4-2.4-8.3-4.9-1.8-2.5-2.4-5.3-1.7-8.6 0.7-3.6 2.7-6.3 5.8-8.1C181.9 9.5 185.6 9 189.6 9.8zM186.7 14.7c-0.7-0.1-1.3 0-1.8 0.4-0.5 0.4-0.8 1-1 1.9-0.2 0.9-0.3 2.2-0.2 3.9 0 1.7 0.2 3.1 0.4 4.5 0.2 1.4 0.9 2.1 1.9 2.4 1.4 0.3 2.2-0.5 2.6-2.2 0.3-1.3 0.4-2.8 0.4-4.5 0-1.7-0.2-3.1-0.4-4.3C188.2 15.6 187.6 14.9 186.7 14.7z"/></svg>